<svg width="239" height="33" viewBox="0 0 239 33" fill="none" xmlns="http://www.w3.org/2000/svg">
<path d="M23.1484 16.7266V16.8906C23.1484 16.9375 23.1406 16.9844 23.125 17.0312C22.9531 17.3594 22.7422 17.6094 22.4922 17.7812C22.2422 17.9531 21.9297 18.0391 21.5547 18.0391C21.3047 18.0391 21.1172 18.0156 20.9922 17.9688C20.8828 17.9219 20.7344 17.8359 20.5469 17.7109C20.2656 17.7422 19.9453 17.7734 19.5859 17.8047C19.2266 17.8203 18.8672 17.8594 18.5078 17.9219C18.1484 17.9688 17.8047 18.0391 17.4766 18.1328C17.1641 18.2266 16.8984 18.3672 16.6797 18.5547C16.5391 19.6328 16.4609 20.7109 16.4453 21.7891C16.4453 22.8516 16.4297 23.9219 16.3984 25C16.5234 25.3281 16.6094 25.6875 16.6562 26.0781C16.7031 26.4844 16.7344 26.8516 16.75 27.1797C16.8594 27.3672 16.9453 27.5547 17.0078 27.7422C17.0703 27.9453 17.1328 28.1484 17.1953 28.3516C17.2578 28.5547 17.3281 28.75 17.4062 28.9375C17.5 29.125 17.6172 29.2969 17.7578 29.4531C17.8828 29.4531 17.9922 29.4609 18.0859 29.4766C18.1953 29.5078 18.3047 29.5391 18.4141 29.5703V29.7109C18.4141 29.9453 18.4844 30.1172 18.625 30.2266C18.7656 30.3359 18.9219 30.4531 19.0938 30.5781C19.1406 30.75 19.1641 30.9141 19.1641 31.0703C19.1641 31.3359 19.1016 31.5859 18.9766 31.8203C18.8672 32.0547 18.6797 32.2188 18.4141 32.3125C18.2578 32.3125 18.1094 32.2891 17.9688 32.2422C17.8281 32.2109 17.6797 32.1953 17.5234 32.1953C17.4141 32.1953 17.2969 32.2109 17.1719 32.2422C17.0938 32.2109 17.0234 32.1641 16.9609 32.1016C16.9141 32.0547 16.8594 32.0078 16.7969 31.9609C16.7344 31.9141 16.6641 31.875 16.5859 31.8438C16.5234 31.8125 16.4375 31.8047 16.3281 31.8203C16.25 31.6016 16.125 31.3984 15.9531 31.2109C15.7812 31.0234 15.5703 30.9453 15.3203 30.9766C15.3359 30.9141 15.3438 30.8203 15.3438 30.6953C15.3438 30.4766 15.2969 30.2734 15.2031 30.0859C15.125 29.8984 15 29.75 14.8281 29.6406C14.75 29.2812 14.6797 28.8828 14.6172 28.4453C14.5547 28.0234 14.4219 27.6562 14.2188 27.3438C14.2188 26.8906 14.1719 26.4531 14.0781 26.0312C13.9844 25.625 13.8984 25.2031 13.8203 24.7656C13.8828 24.5156 13.9141 24.2344 13.9141 23.9219C13.9141 23.7031 13.9062 23.4922 13.8906 23.2891C13.875 23.0703 13.8672 22.8594 13.8672 22.6562C13.8672 22.4375 13.8828 22.2266 13.9141 22.0234C13.9453 21.8047 14.0234 21.5938 14.1484 21.3906C14.0547 21.2344 13.9922 21.0781 13.9609 20.9219C13.9297 20.75 13.9141 20.5781 13.9141 20.4062C13.9141 20.1406 13.9297 19.8828 13.9609 19.6328L14.0547 18.8828C14.0234 18.8672 13.9688 18.8594 13.8906 18.8594C13.7344 18.8594 13.6016 18.8906 13.4922 18.9531L13.1406 19.1172C13.0625 19.1016 12.9922 19.0938 12.9297 19.0938H12.7188C12.4844 19.0938 12.25 19.1328 12.0156 19.2109C11.7969 19.2734 11.6016 19.3906 11.4297 19.5625C10.8984 19.5625 10.3672 19.6172 9.83594 19.7266C9.30469 19.8203 8.77344 19.9375 8.24219 20.0781C7.72656 20.2188 7.21094 20.375 6.69531 20.5469C6.17969 20.7031 5.66406 20.8438 5.14844 20.9688C5.02344 21.5781 4.92969 22.1953 4.86719 22.8203C4.80469 23.4297 4.77344 24.0547 4.77344 24.6953V25.2578C4.77344 25.4609 4.78906 25.6562 4.82031 25.8438C4.83594 25.9688 4.875 26.0781 4.9375 26.1719C5.01562 26.2812 5.05469 26.3984 5.05469 26.5234C5.05469 26.6328 5.03125 26.7188 4.98438 26.7812C5.09375 26.9688 5.25781 27.1328 5.47656 27.2734C5.71094 27.1953 5.91406 27.1562 6.08594 27.1562C6.36719 27.1562 6.63281 27.2188 6.88281 27.3438C7.13281 27.4844 7.39844 27.5781 7.67969 27.625C7.61719 27.8438 7.52344 28.0547 7.39844 28.2578C7.27344 28.4766 7.19531 28.7109 7.16406 28.9609C7.10156 28.9922 7.03906 29.0078 6.97656 29.0078C6.92969 29.0078 6.88281 29.0078 6.83594 29.0078C6.78906 29.0234 6.75 29.0547 6.71875 29.1016C6.70312 29.1484 6.71094 29.2422 6.74219 29.3828C6.52344 29.4922 6.30469 29.5625 6.08594 29.5938C5.86719 29.6406 5.64062 29.6719 5.40625 29.6875C5.1875 29.7031 4.96094 29.7109 4.72656 29.7109C4.50781 29.7109 4.28125 29.7188 4.04688 29.7344C4.04688 29.6406 4.02344 29.5625 3.97656 29.5C3.94531 29.4531 3.89844 29.4141 3.83594 29.3828C3.77344 29.3672 3.70312 29.3438 3.625 29.3125C3.5625 29.2812 3.50781 29.2422 3.46094 29.1953C3.33594 29.0859 3.23438 28.9375 3.15625 28.75C3.09375 28.5781 3.02344 28.3906 2.94531 28.1875C2.88281 28 2.8125 27.8125 2.73438 27.625C2.65625 27.4375 2.5625 27.2656 2.45312 27.1094C2.42188 26.7656 2.39844 26.4297 2.38281 26.1016C2.36719 25.7734 2.35938 25.4375 2.35938 25.0938C2.35938 24.4531 2.38281 23.8281 2.42969 23.2188C2.47656 22.5938 2.51562 21.9531 2.54688 21.2969C2.40625 21.1562 2.24219 21.0938 2.05469 21.1094C1.88281 21.125 1.71094 21.1094 1.53906 21.0625C1.35156 20.8281 1.19531 20.5703 1.07031 20.2891C0.945312 19.9922 0.882812 19.6875 0.882812 19.375C0.882812 19.2188 0.90625 19.0547 0.953125 18.8828C1.09375 18.8359 1.25 18.7891 1.42188 18.7422C1.59375 18.6953 1.6875 18.5703 1.70312 18.3672C1.8125 18.4297 1.94531 18.4609 2.10156 18.4609C2.25781 18.4609 2.41406 18.4375 2.57031 18.3906C2.72656 18.3438 2.88281 18.3047 3.03906 18.2734C3.10156 18.0234 3.14844 17.7812 3.17969 17.5469C3.22656 17.2969 3.23438 17.0391 3.20312 16.7734C3.42188 16.4453 3.5625 16.0859 3.625 15.6953C3.70312 15.3047 3.75781 14.9297 3.78906 14.5703V14.2422C3.78906 14.1328 3.79688 14.0234 3.8125 13.9141C3.84375 13.7422 3.89062 13.5469 3.95312 13.3281C4.01562 13.1094 4.07031 12.9062 4.11719 12.7188C4.19531 12.4219 4.24219 12.1406 4.25781 11.875C4.28906 11.6094 4.30469 11.3359 4.30469 11.0547V10.9609C4.30469 10.8828 4.27344 10.8281 4.21094 10.7969C4.14844 10.75 4.11719 10.6875 4.11719 10.6094L4.14062 10.5625C4.20312 10.0625 4.27344 9.57031 4.35156 9.08594C4.44531 8.58594 4.57031 8.09375 4.72656 7.60938C4.60156 7.25 4.53906 6.84375 4.53906 6.39062C4.53906 5.79688 4.63281 5.22656 4.82031 4.67969C4.72656 4.42969 4.67969 4.1875 4.67969 3.95312C4.67969 3.76562 4.6875 3.57812 4.70312 3.39062C4.73438 3.20312 4.74219 3.01562 4.72656 2.82812C4.88281 2.75 5.00781 2.64062 5.10156 2.5C5.21094 2.35938 5.33594 2.24219 5.47656 2.14844C5.94531 2.13281 6.33594 2.28906 6.64844 2.61719C6.97656 2.94531 7.14062 3.34375 7.14062 3.8125C7.14062 4.17188 7.03906 4.51562 6.83594 4.84375C6.89844 5.14062 6.92969 5.48438 6.92969 5.875C6.92969 6.45312 6.89062 7.03125 6.8125 7.60938C6.73438 8.1875 6.71094 8.77344 6.74219 9.36719C6.64844 9.58594 6.60156 9.85156 6.60156 10.1641C6.61719 10.4766 6.60938 10.7422 6.57812 10.9609C6.54688 11.1797 6.5 11.4062 6.4375 11.6406C6.375 11.8594 6.33594 12.0781 6.32031 12.2969C6.30469 12.6562 6.28906 13.0156 6.27344 13.375C6.27344 13.7344 6.23438 14.0781 6.15625 14.4062C6.125 14.5312 6.07812 14.6406 6.01562 14.7344C5.96875 14.8125 5.92969 14.9062 5.89844 15.0156C5.83594 15.3438 5.8125 15.6797 5.82812 16.0234C5.85938 16.3516 5.85938 16.6875 5.82812 17.0312C5.8125 17.1406 5.78125 17.25 5.73438 17.3594C5.70312 17.4688 5.6875 17.5859 5.6875 17.7109C5.6875 17.7734 5.70312 17.8516 5.73438 17.9453C7.15625 17.8203 8.57031 17.6094 9.97656 17.3125C11.3828 17.0156 12.7969 16.7578 14.2188 16.5391C14.3281 16.3359 14.3828 16.125 14.3828 15.9062C14.3828 15.7812 14.3594 15.6562 14.3125 15.5312C14.4688 15.0156 14.5859 14.5 14.6641 13.9844C14.7578 13.4531 14.8359 12.9297 14.8984 12.4141C14.9609 11.8984 15.0156 11.3828 15.0625 10.8672C15.1094 10.3359 15.1719 9.8125 15.25 9.29688L15.3906 8.5C15.4375 8.23438 15.5 7.97656 15.5781 7.72656C15.6094 7.63281 15.6406 7.53906 15.6719 7.44531C15.7188 7.35156 15.7422 7.26562 15.7422 7.1875C15.7422 7.10938 15.6953 7.05469 15.6016 7.02344C15.5234 6.99219 15.4844 6.95312 15.4844 6.90625C15.4844 6.875 15.4922 6.85938 15.5078 6.85938C15.5391 6.84375 15.5625 6.84375 15.5781 6.85938C15.6562 6.71875 15.7031 6.57031 15.7188 6.41406C15.7344 6.25781 15.7422 6.10156 15.7422 5.94531C15.7578 5.78906 15.7812 5.64062 15.8125 5.5C15.8438 5.34375 15.9062 5.20312 16 5.07812C15.9844 4.96875 15.9531 4.86719 15.9062 4.77344C15.8594 4.67969 15.8359 4.57031 15.8359 4.44531C15.8203 4.42969 15.8203 4.41406 15.8359 4.39844C15.8672 4.25781 15.8828 4.14062 15.8828 4.04688C15.8984 3.9375 15.9062 3.8125 15.9062 3.67188C15.9062 3.48438 15.9922 3.33594 16.1641 3.22656C16.0859 2.96094 16.0312 2.67188 16 2.35938C15.9688 2.04688 15.9531 1.74219 15.9531 1.44531C15.9531 1.03906 16.0469 0.703125 16.2344 0.4375C16.4375 0.15625 16.7656 0.015625 17.2188 0.015625C17.4531 0.015625 17.6719 0.0625 17.875 0.15625C18.0938 0.25 18.2734 0.382813 18.4141 0.554688C18.4922 0.914062 18.5312 1.25 18.5312 1.5625C18.5312 1.78125 18.5156 1.99219 18.4844 2.19531C18.4688 2.38281 18.4609 2.58594 18.4609 2.80469C18.4609 2.97656 18.4766 3.14062 18.5078 3.29688C18.5391 3.4375 18.5703 3.58594 18.6016 3.74219C18.4609 3.96094 18.3594 4.20312 18.2969 4.46875C18.2344 4.73438 18.1875 5.00781 18.1562 5.28906C18.1406 5.57031 18.125 5.85938 18.1094 6.15625C18.1094 6.4375 18.1016 6.69531 18.0859 6.92969C18.0391 7.44531 17.9609 7.95312 17.8516 8.45312C17.7578 8.95312 17.6484 9.45312 17.5234 9.95312C17.5703 10.125 17.5938 10.2812 17.5938 10.4219C17.5938 10.7031 17.5547 10.9844 17.4766 11.2656C17.3984 11.5312 17.375 11.7969 17.4062 12.0625C17.2969 12.3438 17.2266 12.6328 17.1953 12.9297C17.1641 13.2109 17.1406 13.5078 17.125 13.8203L17.0781 14.7344C17.0625 15.0312 17.0078 15.3203 16.9141 15.6016C16.9453 15.6797 17 15.7266 17.0781 15.7422C17.1719 15.7422 17.2031 15.8047 17.1719 15.9297C17.5312 15.8203 17.9141 15.7734 18.3203 15.7891C18.7266 15.7891 19.1094 15.7891 19.4688 15.7891C19.7031 15.7891 19.9375 15.7891 20.1719 15.7891C20.4062 15.7734 20.6406 15.7422 20.875 15.6953C21.1094 15.6328 21.3438 15.5625 21.5781 15.4844C21.8281 15.3906 22.0703 15.3438 22.3047 15.3438C22.6328 15.3438 22.8828 15.4609 23.0547 15.6953C23.0859 15.8672 23.1094 16.0391 23.125 16.2109C23.1406 16.3828 23.1484 16.5547 23.1484 16.7266ZM37.5859 21.2031C37.5234 21.4375 37.4219 21.6328 37.2812 21.7891C37.1406 21.9453 36.9766 22.0859 36.7891 22.2109C36.6172 22.3359 36.4297 22.4531 36.2266 22.5625C36.0234 22.6562 35.8281 22.7656 35.6406 22.8906H35.3359C34.6797 22.8906 34.1719 22.7344 33.8125 22.4219C33.4688 22.0938 33.2031 21.6953 33.0156 21.2266C32.8281 20.7422 32.6875 20.2266 32.5938 19.6797C32.5156 19.1328 32.4141 18.6328 32.2891 18.1797C32.1016 18.3359 31.9453 18.5234 31.8203 18.7422C31.6953 18.9453 31.5625 19.1484 31.4219 19.3516C31.2969 19.5547 31.1484 19.7422 30.9766 19.9141C30.8203 20.0859 30.6094 20.2031 30.3438 20.2656C30.2969 20.375 30.2422 20.4844 30.1797 20.5938C30.1328 20.7031 30.1016 20.8203 30.0859 20.9453C29.7422 21.1328 29.4297 21.3516 29.1484 21.6016C28.8672 21.8516 28.5859 22.1094 28.3047 22.375C28.0234 22.6406 27.7344 22.8984 27.4375 23.1484C27.1562 23.3828 26.8359 23.5781 26.4766 23.7344C26.4609 23.7188 26.4297 23.7109 26.3828 23.7109C26.1953 23.7109 26.0234 23.7578 25.8672 23.8516C25.7109 23.9297 25.5391 23.9688 25.3516 23.9688C25.2266 23.9688 25.1094 23.9453 25 23.8984C24.9062 23.8516 24.8047 23.7969 24.6953 23.7344C24.6016 23.6719 24.5 23.625 24.3906 23.5938C24.2812 23.5625 24.1641 23.5547 24.0391 23.5703C23.8828 23.2891 23.6719 23.0312 23.4062 22.7969C23.1562 22.5469 23 22.2656 22.9375 21.9531C22.9062 21.8125 22.8828 21.6719 22.8672 21.5312C22.8672 21.375 22.8516 21.2188 22.8203 21.0625C22.7734 20.8281 22.7109 20.5938 22.6328 20.3594C22.5547 20.1094 22.4922 19.8594 22.4453 19.6094C22.5234 19.1875 22.6016 18.7266 22.6797 18.2266C22.7422 17.7109 22.8203 17.2031 22.9141 16.7031C23.0234 16.1875 23.1641 15.7031 23.3359 15.25C23.5234 14.7812 23.7578 14.3828 24.0391 14.0547L24.0156 13.8906C24.0156 13.6406 24.0625 13.4062 24.1562 13.1875C24.25 12.9688 24.3516 12.7578 24.4609 12.5547C24.5703 12.3516 24.6641 12.1484 24.7422 11.9453C24.8203 11.7422 24.8359 11.5156 24.7891 11.2656C24.9766 11.1719 25.1719 11.0938 25.375 11.0312C25.5781 10.9688 25.7891 10.9375 26.0078 10.9375C26.2109 10.9375 26.3984 10.9688 26.5703 11.0312C26.5391 11.1562 26.5938 11.2344 26.7344 11.2656V11.3359C26.7344 11.6641 26.6953 11.9844 26.6172 12.2969C26.5391 12.6094 26.4453 12.9219 26.3359 13.2344C26.2266 13.5312 26.1172 13.8359 26.0078 14.1484C25.9141 14.4453 25.8438 14.75 25.7969 15.0625C25.7344 15.0781 25.6875 15.1094 25.6562 15.1562C25.6406 15.2031 25.625 15.25 25.6094 15.2969C25.5938 15.3438 25.5703 15.3828 25.5391 15.4141C25.5078 15.4453 25.4609 15.4609 25.3984 15.4609C25.3047 16.0078 25.2031 16.5547 25.0938 17.1016C25 17.6328 24.9531 18.1719 24.9531 18.7188C24.9531 19.0469 24.9844 19.3828 25.0469 19.7266C25.1094 20.0703 25.2266 20.3984 25.3984 20.7109L25.4922 20.6875C25.6641 20.6875 25.7969 20.7266 25.8906 20.8047C26 20.8828 26.1406 20.9609 26.3125 21.0391C26.4375 21.0078 26.5547 20.9688 26.6641 20.9219C26.7734 20.8594 26.8203 20.7578 26.8047 20.6172C27.0078 20.6016 27.1797 20.5547 27.3203 20.4766C27.4609 20.3828 27.5859 20.2812 27.6953 20.1719L28.0469 19.8438C28.1719 19.7344 28.3203 19.6562 28.4922 19.6094C28.4922 19.5156 28.5156 19.4453 28.5625 19.3984L28.7031 19.2578C28.75 19.2109 28.7812 19.1641 28.7969 19.1172C28.8281 19.0547 28.8359 18.9688 28.8203 18.8594C29.0078 18.8438 29.1484 18.7969 29.2422 18.7188C29.3516 18.6406 29.4453 18.5547 29.5234 18.4609C29.6172 18.3516 29.7031 18.2422 29.7812 18.1328C29.8594 18.0234 29.9609 17.9297 30.0859 17.8516C30.1953 17.6172 30.3438 17.3047 30.5312 16.9141C30.7344 16.5234 30.9297 16.1172 31.1172 15.6953C31.3203 15.2734 31.4922 14.875 31.6328 14.5C31.7891 14.1094 31.8672 13.8125 31.8672 13.6094C31.8672 13.5312 31.8438 13.4609 31.7969 13.3984C31.7656 13.3359 31.7578 13.2656 31.7734 13.1875V13.1172C31.8984 12.9609 32.0078 12.7891 32.1016 12.6016C32.2109 12.4141 32.3203 12.2344 32.4297 12.0625C32.5547 11.8906 32.6875 11.7344 32.8281 11.5938C32.9688 11.4531 33.1484 11.3438 33.3672 11.2656C33.6172 11.3438 33.8672 11.3984 34.1172 11.4297C34.3828 11.4609 34.6328 11.5234 34.8672 11.6172C34.8828 12.0078 34.9219 12.4609 34.9844 12.9766C35.0469 13.4922 35.1562 13.9297 35.3125 14.2891C35.3125 14.4922 35.3047 14.6875 35.2891 14.875C35.2891 15.0625 35.2891 15.25 35.2891 15.4375C35.2891 15.75 35.2969 16.0703 35.3125 16.3984C35.3438 16.7266 35.3984 17.0312 35.4766 17.3125C35.3672 17.5469 35.3125 17.7969 35.3125 18.0625C35.3125 18.4219 35.3672 18.7656 35.4766 19.0938C35.5859 19.4062 35.6641 19.7422 35.7109 20.1016C35.9141 20.3828 36.1797 20.5234 36.5078 20.5234C36.5859 20.5234 36.6484 20.5156 36.6953 20.5C36.7578 20.4844 36.8203 20.4609 36.8828 20.4297C37.0078 20.5703 37.1172 20.7109 37.2109 20.8516C37.3203 20.9766 37.4453 21.0938 37.5859 21.2031ZM60.9062 22.0469C60.8281 22.2969 60.8047 22.5469 60.8359 22.7969C60.7891 22.8594 60.7344 22.8984 60.6719 22.9141C60.6094 22.9297 60.5469 22.9531 60.4844 22.9844C60.4219 23 60.3672 23.0312 60.3203 23.0781C60.2891 23.1094 60.2891 23.1797 60.3203 23.2891C59.8047 23.3203 59.3125 23.4297 58.8438 23.6172C58.375 23.8047 57.9141 24.0078 57.4609 24.2266C57.2266 24.1484 57.0234 24.0547 56.8516 23.9453C56.6797 23.8359 56.4609 23.7656 56.1953 23.7344C55.9297 23.2031 55.6797 22.6484 55.4453 22.0703C55.2266 21.4766 55.1172 20.8828 55.1172 20.2891C55.1172 19.8516 55.1953 19.4531 55.3516 19.0938C55.3516 18.625 55.3906 18.1641 55.4688 17.7109C55.5469 17.2578 55.6328 16.8125 55.7266 16.375C55.8359 15.9219 55.9297 15.4688 56.0078 15.0156C56.0859 14.5625 56.125 14.1016 56.125 13.6328V13.1172C56.0938 13.1172 56.0547 13.1562 56.0078 13.2344C55.9609 13.2969 55.9141 13.375 55.8672 13.4688C55.8359 13.5469 55.8047 13.625 55.7734 13.7031C55.7422 13.7812 55.7188 13.8281 55.7031 13.8438C55.4375 14.0469 55.2266 14.3047 55.0703 14.6172C54.9297 14.9141 54.7734 15.1953 54.6016 15.4609C54.3828 15.7891 54.1484 16.1094 53.8984 16.4219C53.6641 16.7344 53.3672 16.9766 53.0078 17.1484V17.1953C53.0078 17.2734 52.9844 17.3281 52.9375 17.3594C52.8906 17.3906 52.8828 17.4688 52.9141 17.5938C52.5234 17.7188 52.1562 17.8984 51.8125 18.1328C51.4844 18.3672 51.2109 18.6641 50.9922 19.0234C50.6797 19.1016 50.3828 19.2109 50.1016 19.3516C49.8359 19.4766 49.5625 19.6172 49.2812 19.7734C49.1562 19.8359 49.0234 19.9141 48.8828 20.0078C48.7422 20.1016 48.6016 20.1641 48.4609 20.1953C48.3359 20.2422 48.1641 20.2734 47.9453 20.2891C47.7422 20.3047 47.5234 20.3203 47.2891 20.3359C47.0703 20.3516 46.8516 20.3594 46.6328 20.3594H46.1172C46.0391 20.3594 45.9375 20.3203 45.8125 20.2422C45.6875 20.1641 45.5469 20.0781 45.3906 19.9844C45.25 19.8906 45.1016 19.8047 44.9453 19.7266C44.7891 19.6328 44.6406 19.5703 44.5 19.5391C44.375 19.1328 44.1953 18.7734 43.9609 18.4609C43.7422 18.1328 43.5078 17.8047 43.2578 17.4766C43.1797 17.1016 43.0703 16.7109 42.9297 16.3047C42.8047 15.8984 42.5781 15.5625 42.25 15.2969C42.3281 15.1875 42.3672 15.0625 42.3672 14.9219C42.3672 14.75 42.3281 14.5859 42.25 14.4297C42.1719 14.2734 42.1328 14.1016 42.1328 13.9141C42.1328 13.7891 42.1406 13.6953 42.1562 13.6328C41.9844 13.8203 41.8594 14.0625 41.7812 14.3594C41.7188 14.6406 41.6875 14.8984 41.6875 15.1328C41.6875 15.3203 41.7109 15.4922 41.7578 15.6484C41.6016 15.8672 41.5 16.1406 41.4531 16.4688C41.4219 16.7969 41.4062 17.0859 41.4062 17.3359C41.4062 17.6484 41.4297 17.9531 41.4766 18.25C41.2266 18.5 41.1016 18.8047 41.1016 19.1641C41.1016 19.3672 41.1484 19.5469 41.2422 19.7031C41.2422 19.7656 41.2266 19.8125 41.1953 19.8438C41.1641 19.875 41.125 19.8984 41.0781 19.9141C41.0469 19.9297 41.0078 19.9531 40.9609 19.9844C40.9297 20 40.9141 20.0391 40.9141 20.1016C40.9141 20.1797 40.9141 20.2656 40.9141 20.3594C40.9297 20.4531 40.9375 20.5469 40.9375 20.6406C40.9375 20.8594 40.9297 21.0859 40.9141 21.3203C40.8984 21.5547 40.8906 21.7812 40.8906 22C40.8906 22.4531 40.9297 22.7812 41.0078 22.9844C41.1016 23.1719 41.2109 23.3125 41.3359 23.4062C41.4766 23.5 41.625 23.5938 41.7812 23.6875C41.9375 23.7812 42.0938 23.9609 42.25 24.2266C42.2031 24.3672 42.1172 24.4844 41.9922 24.5781C41.8828 24.6562 41.7734 24.7422 41.6641 24.8359C41.5703 24.9141 41.4844 25.0078 41.4062 25.1172C41.3281 25.2266 41.2969 25.3828 41.3125 25.5859H41.1953C40.9922 25.5859 40.7969 25.6172 40.6094 25.6797C40.4219 25.7422 40.2266 25.7734 40.0234 25.7734C39.9766 25.7734 39.9297 25.7656 39.8828 25.75C39.8359 25.75 39.7891 25.75 39.7422 25.75L39.5078 25.6094C39.4297 25.5625 39.3516 25.5391 39.2734 25.5391C39.1953 25.5391 39.0938 25.5547 38.9688 25.5859C38.75 24.8828 38.5781 24.1562 38.4531 23.4062C38.3438 22.6562 38.2891 21.9219 38.2891 21.2031C38.2891 21.125 38.3047 21.0469 38.3359 20.9688C38.3828 20.875 38.4453 20.8438 38.5234 20.875V20.4297C38.5234 19.9453 38.5625 19.4766 38.6406 19.0234C38.7344 18.5547 38.7812 18.0703 38.7812 17.5703C38.7812 17.4297 38.7734 17.2891 38.7578 17.1484C38.7578 17.0078 38.75 16.875 38.7344 16.75C38.8125 16.4844 38.8906 16.2188 38.9688 15.9531C39.0625 15.6719 39.1094 15.3828 39.1094 15.0859C39.1094 14.9609 39.0859 14.8125 39.0391 14.6406C39.1641 14.5469 39.2578 14.4297 39.3203 14.2891C39.3828 14.1328 39.4297 13.9688 39.4609 13.7969C39.4922 13.6094 39.5156 13.4297 39.5312 13.2578C39.5469 13.0859 39.5625 12.9297 39.5781 12.7891C39.7344 12.4766 39.8203 12.1406 39.8359 11.7812C39.8516 11.4219 39.9297 11.0859 40.0703 10.7734C40.0547 10.7109 40.0469 10.6016 40.0469 10.4453C40.0469 10.1328 40.0938 9.82031 40.1875 9.50781C40.2969 9.17969 40.5078 8.92969 40.8203 8.75781C41.1016 8.86719 41.4297 8.92188 41.8047 8.92188C42.1641 8.92188 42.5078 8.86719 42.8359 8.75781C42.9297 8.78906 43.0156 8.82812 43.0938 8.875C43.1719 8.90625 43.25 8.94531 43.3281 8.99219C43.4219 9.02344 43.5156 9.05469 43.6094 9.08594C43.7031 9.10156 43.8125 9.10156 43.9375 9.08594C44.0938 9.53906 44.2266 10 44.3359 10.4688C44.4609 10.9375 44.5547 11.4141 44.6172 11.8984C44.6484 12.1016 44.6562 12.3203 44.6406 12.5547C44.6406 12.7891 44.6562 13.0078 44.6875 13.2109C44.7031 13.3359 44.7422 13.4531 44.8047 13.5625C44.8672 13.6562 44.9297 13.7656 44.9922 13.8906C45.0547 14.0156 45.1016 14.1562 45.1328 14.3125C45.1797 14.4688 45.1953 14.6641 45.1797 14.8984C45.3516 15.3047 45.5391 15.6953 45.7422 16.0703C45.9609 16.4297 46.1953 16.7891 46.4453 17.1484C46.5859 17.1953 46.7109 17.2578 46.8203 17.3359C46.9297 17.3984 47 17.5078 47.0312 17.6641C47.1719 17.6641 47.2969 17.6875 47.4062 17.7344L47.8047 17.8516C48.3984 17.6641 48.9453 17.4141 49.4453 17.1016C49.9609 16.7891 50.5 16.5234 51.0625 16.3047C51.75 15.6328 52.3438 14.8906 52.8438 14.0781C53.3438 13.25 53.8438 12.4297 54.3438 11.6172V11.1016C54.4375 11.0547 54.5156 11 54.5781 10.9375C54.6562 10.8594 54.75 10.8047 54.8594 10.7734C54.875 10.5859 54.9141 10.4062 54.9766 10.2344C55.0547 10.0469 55.1328 9.875 55.2109 9.71875C55.3047 9.54688 55.3828 9.38281 55.4453 9.22656C55.5078 9.05469 55.5391 8.875 55.5391 8.6875C55.5391 8.57812 55.5312 8.48438 55.5156 8.40625C55.75 8.17188 56.0312 8.05469 56.3594 8.05469C56.6719 8.05469 56.9844 8.13281 57.2969 8.28906C57.625 8.42969 57.9297 8.5625 58.2109 8.6875C58.3828 9.0625 58.5078 9.46094 58.5859 9.88281C58.6797 10.2891 58.7422 10.7109 58.7734 11.1484C58.8047 11.5859 58.8203 12.0234 58.8203 12.4609V14.125C58.8047 14.25 58.7578 14.3438 58.6797 14.4062C58.6172 14.4531 58.5703 14.5312 58.5391 14.6406V14.875C58.5391 14.9531 58.5312 15.0312 58.5156 15.1094C58.5156 15.4375 58.4766 15.7812 58.3984 16.1406C58.3203 16.5938 58.2188 17.0547 58.0938 17.5234C57.9844 17.9766 57.9297 18.4375 57.9297 18.9062C57.9297 19.0781 57.9375 19.25 57.9531 19.4219C57.9688 19.5938 58 19.7656 58.0469 19.9375C57.9688 20.0781 57.9297 20.2578 57.9297 20.4766C57.9297 20.7266 57.9688 20.9609 58.0469 21.1797C58.1406 21.3828 58.25 21.5859 58.375 21.7891C58.5938 21.7891 58.8125 21.7812 59.0312 21.7656C59.25 21.75 59.4766 21.7422 59.7109 21.7422C59.9297 21.7422 60.1328 21.7656 60.3203 21.8125C60.5078 21.8438 60.7031 21.9219 60.9062 22.0469ZM79.9844 11.9688C79.9844 12.1875 79.9766 12.4062 79.9609 12.625C79.9453 12.8438 79.9219 13.0625 79.8906 13.2812C79.7812 13.4375 79.6719 13.5781 79.5625 13.7031C79.4688 13.8125 79.4062 13.9531 79.375 14.125C79.2031 14.25 79.0078 14.4219 78.7891 14.6406C78.5859 14.8594 78.5 15.0781 78.5312 15.2969H78.2031C78.0156 15.5781 77.7969 15.8203 77.5469 16.0234C77.2969 16.2266 77.0312 16.4219 76.75 16.6094L75.9297 17.1484C75.6641 17.3203 75.4141 17.5234 75.1797 17.7578C75.0547 17.7734 74.9531 17.7969 74.875 17.8281C74.7969 17.8594 74.6953 17.8672 74.5703 17.8516C74.0859 18.1641 73.5781 18.4375 73.0469 18.6719C72.5312 18.9062 72.0078 19.1406 71.4766 19.375C70.9609 19.5938 70.4453 19.8281 69.9297 20.0781C69.4141 20.3281 68.9219 20.6172 68.4531 20.9453C68.4062 20.9297 68.3438 20.9219 68.2656 20.9219C68.125 20.9219 67.9844 20.9453 67.8438 20.9922C67.7031 21.0234 67.5625 21.0391 67.4219 21.0391C67.3594 21.0391 67.2734 21.0312 67.1641 21.0156C67.0703 21 67 20.9766 66.9531 20.9453C66.875 20.8984 66.8047 20.8281 66.7422 20.7344C66.6797 20.6406 66.6328 20.5391 66.6016 20.4297C66.5703 20.3047 66.5469 20.1875 66.5312 20.0781C66.5156 19.9688 66.5078 19.875 66.5078 19.7969C66.5078 19.7031 66.5156 19.6016 66.5312 19.4922C66.5469 19.3828 66.5703 19.2812 66.6016 19.1875C67.0547 19.1562 67.5078 19.0391 67.9609 18.8359C68.4297 18.6328 68.875 18.4375 69.2969 18.25C69.4062 18.2031 69.4922 18.1484 69.5547 18.0859C69.6328 18.0078 69.7109 17.9453 69.7891 17.8984C69.8672 17.8359 69.9531 17.7812 70.0469 17.7344C70.1406 17.6875 70.2578 17.6641 70.3984 17.6641H70.4688C71.4531 17.2109 72.4141 16.7188 73.3516 16.1875C74.3047 15.6562 75.25 15.1172 76.1875 14.5703C76.2344 14.4297 76.3047 14.2891 76.3984 14.1484C76.5078 14.0078 76.6094 13.875 76.7031 13.75C76.7969 13.6094 76.8828 13.4688 76.9609 13.3281C77.0391 13.1875 77.0781 13.0469 77.0781 12.9062C77.0781 12.625 76.9453 12.3906 76.6797 12.2031H76.5859C76.3984 12.2031 76.2344 12.1797 76.0938 12.1328C75.9531 12.0703 75.8203 12.0156 75.6953 11.9688C75.5703 11.9062 75.4297 11.8594 75.2734 11.8281C75.1172 11.7812 74.9375 11.7656 74.7344 11.7812C74.6562 11.7188 74.5312 11.6641 74.3594 11.6172C74.1875 11.5703 74.0469 11.5469 73.9375 11.5469C73.375 11.5469 72.8203 11.5859 72.2734 11.6641C71.7266 11.7266 71.1797 11.7656 70.6328 11.7812C70.4922 11.8594 70.3594 11.9297 70.2344 11.9922C70.1094 12.0547 69.9609 12.0859 69.7891 12.0859C69.7109 12.0859 69.6406 12.0859 69.5781 12.0859C69.5156 12.0703 69.4453 12.0547 69.3672 12.0391C69.0703 12.1641 68.7344 12.2734 68.3594 12.3672C67.9844 12.4453 67.6094 12.5469 67.2344 12.6719C66.875 12.7812 66.5391 12.9219 66.2266 13.0938C65.9141 13.2656 65.6719 13.5 65.5 13.7969C65.5 13.875 65.5156 13.9453 65.5469 14.0078C65.5781 14.0547 65.5938 14.1172 65.5938 14.1953V14.2891C65.5 14.3828 65.4375 14.4922 65.4062 14.6172C65.375 14.7266 65.3516 14.8438 65.3359 14.9688C65.3203 15.0781 65.2969 15.1953 65.2656 15.3203C65.25 15.4297 65.1953 15.5391 65.1016 15.6484C65.1641 15.8828 65.1953 16.1406 65.1953 16.4219C65.1953 16.7344 65.1719 17.0469 65.125 17.3594C65.0938 17.6719 65.0781 17.9844 65.0781 18.2969C65.0781 18.5938 65.1094 18.8594 65.1719 19.0938C65.0781 19.1875 65.0391 19.3281 65.0547 19.5156C65.0703 19.7031 65.0312 19.8438 64.9375 19.9375C64.9375 20.0625 64.9688 20.1484 65.0312 20.1953C65.1094 20.2422 65.1562 20.3203 65.1719 20.4297C65.1094 20.6953 65.0781 20.9844 65.0781 21.2969C65.0781 21.75 65.125 22.2109 65.2188 22.6797C65.3281 23.1484 65.4531 23.6094 65.5938 24.0625C65.8438 23.9844 66.1094 23.9219 66.3906 23.875C66.6875 23.8125 66.9688 23.7812 67.2344 23.7812C67.2812 23.7812 67.3281 23.7891 67.375 23.8047C67.4219 23.8047 67.4688 23.8047 67.5156 23.8047C67.5469 23.9766 67.6094 24.1328 67.7031 24.2734C67.7969 24.4141 67.8828 24.5703 67.9609 24.7422C67.8828 24.8516 67.8125 24.9375 67.75 25C67.7031 25.0781 67.6797 25.1797 67.6797 25.3047C67.4609 25.3203 67.2812 25.375 67.1406 25.4688C67 25.5781 66.8438 25.6953 66.6719 25.8203H66.5781C66.3125 25.8203 66.0938 25.8672 65.9219 25.9609C65.75 26.0703 65.5547 26.1875 65.3359 26.3125C65.1484 26.2344 64.9609 26.1953 64.7734 26.1953C64.5703 26.1953 64.3672 26.2344 64.1641 26.3125C63.9141 26.2031 63.7109 26.0312 63.5547 25.7969C63.3984 25.5781 63.2656 25.3281 63.1562 25.0469C63.0469 24.7812 62.9453 24.5078 62.8516 24.2266C62.7734 23.9453 62.6797 23.6875 62.5703 23.4531V23.0781C62.5703 22.7188 62.5391 22.375 62.4766 22.0469C62.4297 21.7031 62.4062 21.3516 62.4062 20.9922C62.4062 20.8516 62.4141 20.7031 62.4297 20.5469C62.4609 20.3906 62.5078 20.2422 62.5703 20.1016C62.5391 19.9609 62.5234 19.8281 62.5234 19.7031V19.2578C62.5234 18.7891 62.5391 18.3203 62.5703 17.8516C62.6172 17.3828 62.6406 16.9141 62.6406 16.4453C62.6406 16.1016 62.6172 15.75 62.5703 15.3906C62.4922 15.4219 62.4219 15.4531 62.3594 15.4844C62.2969 15.5156 62.2266 15.5312 62.1484 15.5312C62.0703 15.5312 61.9922 15.5234 61.9141 15.5078C61.8516 15.4922 61.7891 15.4766 61.7266 15.4609C61.5703 15.3203 61.4609 15.1484 61.3984 14.9453C61.3359 14.7422 61.25 14.5547 61.1406 14.3828C61.1406 14.0859 61.1875 13.8438 61.2812 13.6562C61.3594 13.4531 61.4609 13.2734 61.5859 13.1172C61.7109 12.9453 61.8359 12.7812 61.9609 12.625C62.1016 12.4688 62.2188 12.2734 62.3125 12.0391H62.4062C62.6562 12.0391 62.9062 11.9609 63.1562 11.8047C63.4062 11.6328 63.6875 11.5469 64 11.5469C64.1094 11.4062 64.2578 11.2891 64.4453 11.1953C64.6328 11.0859 64.8281 11 65.0312 10.9375C65.25 10.875 65.4609 10.8359 65.6641 10.8203C65.8828 10.7891 66.0859 10.7734 66.2734 10.7734C66.3359 10.6641 66.4297 10.5938 66.5547 10.5625C66.6797 10.5156 66.8047 10.4766 66.9297 10.4453C67.0703 10.3984 67.1953 10.3594 67.3047 10.3281C67.4297 10.2812 67.5312 10.2031 67.6094 10.0938C67.7344 10.125 67.8516 10.1406 67.9609 10.1406C68.1641 10.1406 68.3594 10.1172 68.5469 10.0703C68.7344 10.0078 68.9219 9.94531 69.1094 9.88281C69.2969 9.80469 69.4844 9.73438 69.6719 9.67188C69.875 9.60938 70.0859 9.57812 70.3047 9.57812C70.3828 9.57812 70.4609 9.58594 70.5391 9.60156C70.6172 9.60156 70.6953 9.60156 70.7734 9.60156C70.8984 9.60156 70.9688 9.55469 70.9844 9.46094C71.0156 9.36719 71.0703 9.29688 71.1484 9.25C71.1953 9.26562 71.2812 9.27344 71.4062 9.27344C71.7188 9.27344 72.0234 9.25 72.3203 9.20312C72.6172 9.14062 72.9219 9.10938 73.2344 9.10938C73.375 9.10938 73.5156 9.11719 73.6562 9.13281C73.7969 9.14844 73.9375 9.1875 74.0781 9.25C74.1094 9.20312 74.1406 9.16406 74.1719 9.13281C74.2031 9.10156 74.2266 9.0625 74.2422 9.01562C75.0078 9.0625 75.7266 9.21875 76.3984 9.48438C77.0859 9.75 77.7969 9.98438 78.5312 10.1875C78.625 10.3281 78.7344 10.4531 78.8594 10.5625L79.2578 10.8906C79.3984 11 79.5312 11.1094 79.6562 11.2188C79.7812 11.3281 79.8906 11.4609 79.9844 11.6172V11.9688ZM96.5078 13.4453C96.5078 13.6016 96.4531 13.7031 96.3438 13.75C96.2344 13.7969 96.1797 13.8906 96.1797 14.0312C96.1797 14.0781 96.1953 14.1172 96.2266 14.1484C96.2578 14.1797 96.2734 14.2266 96.2734 14.2891V14.3828C96.0859 15.2891 95.8125 16.0781 95.4531 16.75C95.1094 17.4219 94.7031 18.0391 94.2344 18.6016C93.7656 19.1641 93.2344 19.6953 92.6406 20.1953C92.0625 20.6953 91.4375 21.2188 90.7656 21.7656C90.5781 21.9219 90.3828 22.0781 90.1797 22.2344C89.9922 22.3906 89.8125 22.5547 89.6406 22.7266L89.125 23.2188C89.1094 23.2344 89.0234 23.2734 88.8672 23.3359C88.7109 23.3828 88.6172 23.4141 88.5859 23.4297C88.3672 23.5234 88.1328 23.6328 87.8828 23.7578C87.6484 23.8828 87.4453 24.0391 87.2734 24.2266C86.9609 24.2266 86.6953 24.2734 86.4766 24.3672C86.2578 24.4609 86.0156 24.5859 85.75 24.7422C85.6719 24.7422 85.6016 24.7266 85.5391 24.6953C85.4922 24.6641 85.4375 24.6328 85.375 24.6016C85.3125 24.5703 85.2422 24.5547 85.1641 24.5547C85.1016 24.5391 85.0156 24.5469 84.9062 24.5781C84.7188 24.2656 84.5156 24 84.2969 23.7812C84.0781 23.5625 83.7812 23.4297 83.4062 23.3828C83.3594 23.1172 83.25 22.9141 83.0781 22.7734C82.9062 22.6172 82.7344 22.4531 82.5625 22.2812C82.5312 22.1875 82.5078 22.0781 82.4922 21.9531C82.4766 21.8281 82.4453 21.7109 82.3984 21.6016C82.3516 21.4922 82.2891 21.3984 82.2109 21.3203C82.1328 21.2422 82.0234 21.2031 81.8828 21.2031C81.8672 21.1094 81.9062 21.0625 82 21.0625C82.0938 21.0625 82.1406 21.0234 82.1406 20.9453C82.1406 20.8516 82.125 20.7578 82.0938 20.6641C82.0625 20.5703 82.0469 20.4688 82.0469 20.3594C82.0469 20.2812 82.0547 20.2109 82.0703 20.1484C82.0859 20.0859 82.1094 20.0156 82.1406 19.9375C82.0938 19.5156 82.0703 19.0859 82.0703 18.6484C82.0703 17.8047 82.125 16.9766 82.2344 16.1641C82.3594 15.3359 82.4219 14.5 82.4219 13.6562C82.4219 13.2812 82.3984 12.9062 82.3516 12.5312C82.3203 12.1562 82.25 11.7891 82.1406 11.4297C81.7812 11.5078 81.4219 11.6016 81.0625 11.7109C80.7031 11.8047 80.3672 11.9375 80.0547 12.1094C79.8828 12 79.7031 11.9375 79.5156 11.9219C79.3125 11.8906 79.1172 11.8438 78.9297 11.7812C78.8203 11.5625 78.7656 11.3359 78.7656 11.1016C78.7656 10.8828 78.8047 10.6719 78.8828 10.4688L79.1172 9.85938C79.4922 9.78125 79.8672 9.66406 80.2422 9.50781C80.6016 9.35156 80.9688 9.21094 81.3438 9.08594C81.4688 9.05469 81.625 9.01562 81.8125 8.96875C82.0156 8.92188 82.1562 8.88281 82.2344 8.85156C82.3438 8.80469 82.4141 8.71875 82.4453 8.59375C82.4922 8.45312 82.5547 8.33594 82.6328 8.24219H83.0312C83.125 8.24219 83.2266 8.25 83.3359 8.26562C83.4453 8.26562 83.5469 8.28906 83.6406 8.33594C84.2031 8.19531 84.7656 8.10938 85.3281 8.07812C85.8906 8.03125 86.4688 7.96875 87.0625 7.89062C87.125 7.89062 87.2188 7.88281 87.3438 7.86719L87.7422 7.79688C87.8828 7.76562 88.0078 7.74219 88.1172 7.72656C88.2422 7.69531 88.3281 7.67969 88.375 7.67969C88.4219 7.67969 88.4453 7.70312 88.4453 7.75H88.8438C89.5156 7.75 90.1719 7.83594 90.8125 8.00781L92.7344 8.52344C93 8.74219 93.2656 8.95312 93.5312 9.15625C93.7969 9.35938 94.0938 9.53906 94.4219 9.69531C94.5 9.94531 94.6172 10.1484 94.7734 10.3047C94.9453 10.4453 95.1328 10.6016 95.3359 10.7734C95.4141 10.9766 95.5156 11.1953 95.6406 11.4297C95.7812 11.6484 95.9141 11.875 96.0391 12.1094C96.1641 12.3438 96.2734 12.5781 96.3672 12.8125C96.4609 13.0312 96.5078 13.2422 96.5078 13.4453ZM94.3281 13.7969C94.1562 13.4375 93.9922 13.0625 93.8359 12.6719C93.6797 12.2812 93.4844 11.9297 93.25 11.6172C92.9688 11.5391 92.6797 11.4453 92.3828 11.3359C92.1016 11.2109 91.9062 11 91.7969 10.7031C91.7656 10.7188 91.7109 10.7266 91.6328 10.7266C91.4922 10.7266 91.3672 10.6719 91.2578 10.5625C91.1484 10.4531 91.0234 10.3828 90.8828 10.3516C90.7578 10.3359 90.5859 10.3125 90.3672 10.2812C90.1641 10.25 89.9453 10.2266 89.7109 10.2109C89.4766 10.1953 89.2422 10.1797 89.0078 10.1641C88.7891 10.1484 88.6172 10.1406 88.4922 10.1406C88.3672 10.1406 88.2344 10.1484 88.0938 10.1641C87.9688 10.1641 87.8359 10.1719 87.6953 10.1875C87.5703 10.1875 87.4922 10.2109 87.4609 10.2578C87.4297 10.2891 87.3672 10.3203 87.2734 10.3516C87.1953 10.3203 87.1094 10.3047 87.0156 10.3047H86.7344C86.4062 10.3047 86.0781 10.3594 85.75 10.4688C85.4375 10.5625 85.125 10.6953 84.8125 10.8672V10.9609C84.8125 11.0859 84.8672 11.1562 84.9766 11.1719C85.0859 11.1875 85.1484 11.25 85.1641 11.3594C85.0859 11.3594 85.0234 11.3672 84.9766 11.3828C84.9297 11.3828 84.9062 11.4375 84.9062 11.5469C84.9062 11.7031 84.9219 11.875 84.9531 12.0625C85 12.25 85.0234 12.4375 85.0234 12.625C85.0234 12.7656 85.0078 12.9297 84.9766 13.1172C84.9453 13.3047 84.8672 13.4531 84.7422 13.5625C84.8984 13.7031 84.9766 13.8906 84.9766 14.125C84.9766 14.2812 84.9453 14.4453 84.8828 14.6172C84.8203 14.7891 84.7422 14.9375 84.6484 15.0625C84.6172 15.7188 84.5547 16.3828 84.4609 17.0547C84.3672 17.7266 84.3203 18.3906 84.3203 19.0469C84.3203 19.375 84.3359 19.6953 84.3672 20.0078C84.4141 20.3203 84.4844 20.6328 84.5781 20.9453C84.75 21.1172 84.9297 21.25 85.1172 21.3438C85.3203 21.4375 85.5312 21.5312 85.75 21.625V21.6953C85.75 21.7422 85.7188 21.7891 85.6562 21.8359C85.5938 21.8828 85.5625 21.9453 85.5625 22.0234C85.5625 22.0859 85.5938 22.1172 85.6562 22.1172C86.3125 21.9297 86.9297 21.7031 87.5078 21.4375C88.0859 21.1719 88.625 20.8125 89.125 20.3594C89.1719 20.3125 89.2188 20.2891 89.2656 20.2891C89.2969 20.2891 89.3359 20.2969 89.3828 20.3125C89.4453 20.3281 89.5 20.3438 89.5469 20.3594L89.5234 20.2656C89.5234 20.1719 89.5469 20.0859 89.5938 20.0078C89.6562 19.9297 89.7266 19.8594 89.8047 19.7969L90.0391 19.5859C90.1172 19.5078 90.1797 19.4297 90.2266 19.3516C90.3516 19.3203 90.4375 19.2578 90.4844 19.1641C90.5469 19.0703 90.6484 19.0234 90.7891 19.0234C90.8203 18.8516 90.9062 18.7266 91.0469 18.6484C91.1875 18.5547 91.2734 18.4219 91.3047 18.25C91.6172 18.0781 91.8906 17.8672 92.125 17.6172C92.375 17.3672 92.6016 17.1016 92.8047 16.8203C93.0234 16.5391 93.2266 16.25 93.4141 15.9531C93.6016 15.6406 93.7969 15.3438 94 15.0625V14.9688C94 14.7188 94.0391 14.5156 94.1172 14.3594C94.2109 14.2031 94.2812 14.0156 94.3281 13.7969ZM114.977 23.2891C114.93 23.5078 114.828 23.6875 114.672 23.8281C114.531 23.9531 114.359 24.0547 114.156 24.1328C113.953 24.2109 113.742 24.2656 113.523 24.2969C113.32 24.3125 113.133 24.3203 112.961 24.3203C112.883 24.3203 112.805 24.3203 112.727 24.3203C112.664 24.3047 112.594 24.2969 112.516 24.2969C112.438 24.2969 112.398 24.3359 112.398 24.4141C112.398 24.4922 112.359 24.5469 112.281 24.5781C112.203 24.5469 112.125 24.5234 112.047 24.5078C111.969 24.4922 111.891 24.4844 111.812 24.4844C111.703 24.4844 111.594 24.4922 111.484 24.5078C111.391 24.5234 111.297 24.5312 111.203 24.5312C111.078 24.5312 110.984 24.5156 110.922 24.4844C110.875 24.4531 110.828 24.4219 110.781 24.3906C110.75 24.3438 110.711 24.2969 110.664 24.25C110.633 24.2031 110.578 24.1641 110.5 24.1328C110.391 24.0859 110.297 24.0781 110.219 24.1094C110.156 24.1406 110.055 24.0938 109.914 23.9688C109.727 23.8125 109.562 23.625 109.422 23.4062C109.297 23.1719 109.172 22.9297 109.047 22.6797C108.922 22.4297 108.789 22.1797 108.648 21.9297C108.508 21.6797 108.344 21.4609 108.156 21.2734H107.969C107.688 21.2734 107.492 21.3906 107.383 21.625C107.305 21.5781 107.227 21.5234 107.148 21.4609C107.07 21.3828 106.984 21.3203 106.891 21.2734C106.531 21.3828 106.156 21.4766 105.766 21.5547C105.375 21.6328 104.984 21.6719 104.594 21.6719H104.266C104.172 21.6719 104.07 21.6562 103.961 21.625C103.805 21.6875 103.664 21.7656 103.539 21.8594C103.414 21.9375 103.273 21.9766 103.117 21.9766C103.023 21.9766 102.914 21.9453 102.789 21.8828C102.695 21.8828 102.648 21.9219 102.648 22C102.664 22.0781 102.617 22.1172 102.508 22.1172H102.297C102.078 22.1172 101.859 22.125 101.641 22.1406C101.438 22.1562 101.227 22.1641 101.008 22.1641C100.711 22.1641 100.406 22.125 100.094 22.0469C100.016 22.0938 99.9297 22.1172 99.8359 22.1172C99.7734 22.1484 99.7266 22.2031 99.6953 22.2812C99.6641 22.3438 99.6328 22.4062 99.6016 22.4688C99.5703 22.5156 99.5234 22.5625 99.4609 22.6094C99.4141 22.6406 99.3438 22.6484 99.25 22.6328C99.2188 22.8203 99.1406 22.9688 99.0156 23.0781C98.8906 23.1875 98.8281 23.3516 98.8281 23.5703C98.6562 23.6641 98.5156 23.7812 98.4062 23.9219C98.2969 24.0625 98.1875 24.2109 98.0781 24.3672C97.9688 24.5234 97.8516 24.6719 97.7266 24.8125C97.6172 24.9531 97.4766 25.0625 97.3047 25.1406C97.2266 25.2344 97.2031 25.3828 97.2344 25.5859C97.0625 25.7266 96.8516 25.8516 96.6016 25.9609C96.3516 26.0703 96.1172 26.125 95.8984 26.125C95.4453 26.125 95.1328 25.8828 94.9609 25.3984C94.9609 25.2422 94.9766 25.0781 95.0078 24.9062C95.0234 24.7188 95.0547 24.5469 95.1016 24.3906C95.1484 24.2188 95.2188 24.0703 95.3125 23.9453C95.4062 23.8047 95.5391 23.7031 95.7109 23.6406C95.7109 23.5 95.6641 23.4062 95.5703 23.3594C95.4766 23.2969 95.4375 23.1953 95.4531 23.0547C95.875 22.8516 96.2422 22.5859 96.5547 22.2578C96.8672 21.9297 97.1484 21.5859 97.3984 21.2266C97.6641 20.8516 97.9297 20.4766 98.1953 20.1016C98.4609 19.7266 98.7578 19.3906 99.0859 19.0938V18.6016C99.5547 18.1016 99.8594 17.5391 100 16.9141C100.172 16.8828 100.281 16.8047 100.328 16.6797C100.391 16.5547 100.422 16.4062 100.422 16.2344C100.5 16.2344 100.547 16.2031 100.562 16.1406C100.594 16.0625 100.664 16.0391 100.773 16.0703C100.914 15.6953 101.07 15.3516 101.242 15.0391C101.414 14.7266 101.586 14.4141 101.758 14.1016C101.93 13.7734 102.078 13.4375 102.203 13.0938C102.344 12.75 102.445 12.3672 102.508 11.9453C102.727 11.9297 102.844 11.8281 102.859 11.6406C102.891 11.4375 102.922 11.2578 102.953 11.1016C103.188 10.8828 103.359 10.625 103.469 10.3281C103.594 10.0312 103.703 9.72656 103.797 9.41406C103.891 9.08594 103.992 8.76562 104.102 8.45312C104.227 8.125 104.398 7.83594 104.617 7.58594V7.51562C104.617 7.4375 104.586 7.39062 104.523 7.375C104.461 7.34375 104.43 7.28906 104.43 7.21094C104.445 7.19531 104.453 7.17969 104.453 7.16406C104.641 7.08594 104.781 6.96094 104.875 6.78906C104.969 6.60156 105.109 6.46875 105.297 6.39062C105.625 6.65625 105.914 6.82031 106.164 6.88281C106.414 6.92969 106.742 6.96875 107.148 7C107.352 7.21875 107.461 7.48438 107.477 7.79688C107.508 8.09375 107.562 8.39062 107.641 8.6875C107.766 9.1875 107.898 9.67969 108.039 10.1641C108.195 10.6328 108.312 11.1172 108.391 11.6172C108.438 11.9141 108.523 12.1953 108.648 12.4609C108.773 12.7266 108.859 13 108.906 13.2812C108.938 13.5 108.938 13.75 108.906 14.0312C108.875 14.2969 108.906 14.5312 109 14.7344L109.164 15.1094C109.242 15.2812 109.305 15.4609 109.352 15.6484C109.414 15.8359 109.469 16.0234 109.516 16.2109C109.641 16.6797 109.75 17.1875 109.844 17.7344C109.953 18.2656 110.117 18.75 110.336 19.1875C110.414 19.3438 110.531 19.4531 110.688 19.5156C110.859 19.5781 111.047 19.625 111.25 19.6562C111.453 19.6719 111.648 19.6797 111.836 19.6797C112.039 19.6641 112.211 19.6562 112.352 19.6562H112.586C112.68 19.6562 112.773 19.6719 112.867 19.7031C112.93 19.8281 112.961 19.9375 112.961 20.0312C112.961 20.2188 112.898 20.3672 112.773 20.4766C112.648 20.5859 112.586 20.7109 112.586 20.8516C112.586 20.9297 112.617 21.0156 112.68 21.1094C112.617 21.0938 112.523 21.0859 112.398 21.0859C112.039 21.0859 111.688 21.1484 111.344 21.2734C111.469 21.5391 111.633 21.7656 111.836 21.9531C112.055 22.125 112.281 22.2891 112.516 22.4453C112.672 22.3203 112.836 22.2578 113.008 22.2578C113.195 22.2578 113.367 22.3047 113.523 22.3984C113.695 22.4766 113.875 22.5156 114.062 22.5156C114.203 22.5156 114.305 22.4922 114.367 22.4453C114.492 22.5859 114.594 22.7344 114.672 22.8906C114.75 23.0312 114.852 23.1641 114.977 23.2891ZM107.641 19.5391C107.609 19.2734 107.555 19.0859 107.477 18.9766C107.414 18.8516 107.359 18.7031 107.312 18.5312C107.25 18.3125 107.203 18.0781 107.172 17.8281C107.156 17.5781 107.125 17.3359 107.078 17.1016C106.969 16.5703 106.844 16.0391 106.703 15.5078C106.578 14.9766 106.414 14.4609 106.211 13.9609C106.273 13.8672 106.305 13.7812 106.305 13.7031V13.6328C106.164 13.4766 106.062 13.2891 106 13.0703C105.938 12.8359 105.875 12.6094 105.812 12.3906C105.766 12.1562 105.695 11.9453 105.602 11.7578C105.523 11.5547 105.391 11.3906 105.203 11.2656C105.156 11.3594 105.133 11.4688 105.133 11.5938C105.133 11.7031 105.141 11.8047 105.156 11.8984C105.188 11.9922 105.203 12.0938 105.203 12.2031C105.047 12.2812 104.93 12.4062 104.852 12.5781C104.789 12.7344 104.68 12.8594 104.523 12.9531C104.398 13.4531 104.219 13.9297 103.984 14.3828C103.75 14.8203 103.5 15.2578 103.234 15.6953C102.984 16.1328 102.742 16.5781 102.508 17.0312C102.273 17.4688 102.086 17.9297 101.945 18.4141C101.742 18.5547 101.602 18.7344 101.523 18.9531C101.461 19.1719 101.43 19.3906 101.43 19.6094C101.57 19.6875 101.727 19.7344 101.898 19.75C102.086 19.75 102.266 19.75 102.438 19.75C102.609 19.75 102.773 19.7656 102.93 19.7969C103.086 19.8281 103.227 19.9062 103.352 20.0312C103.555 19.9688 103.773 19.9297 104.008 19.9141C104.258 19.8828 104.461 19.8125 104.617 19.7031C104.93 19.8125 105.266 19.8672 105.625 19.8672C105.812 19.8672 105.992 19.8516 106.164 19.8203C106.352 19.7891 106.531 19.75 106.703 19.7031C106.844 19.7344 106.953 19.7891 107.031 19.8672C107.109 19.9297 107.227 19.9531 107.383 19.9375C107.461 19.875 107.508 19.8125 107.523 19.75C107.539 19.6719 107.578 19.6016 107.641 19.5391ZM127.188 8.875C127.188 9.01562 127.125 9.13281 127 9.22656C126.891 9.32031 126.836 9.39062 126.836 9.4375C126.836 9.53125 126.852 9.60156 126.883 9.64844C126.914 9.67969 126.93 9.71875 126.93 9.76562V9.88281C126.773 10.0391 126.656 10.2109 126.578 10.3984C126.5 10.5703 126.438 10.7578 126.391 10.9609C126.344 11.1484 126.297 11.3438 126.25 11.5469C126.219 11.75 126.172 11.9453 126.109 12.1328C126.031 12.3203 125.93 12.4844 125.805 12.625C125.68 12.75 125.578 12.8984 125.5 13.0703C125.375 13.3516 125.281 13.6406 125.219 13.9375C125.156 14.2344 125.023 14.5078 124.82 14.7578V14.875C124.805 14.9844 124.836 15.0781 124.914 15.1562C124.617 15.5469 124.383 16.0156 124.211 16.5625C124.039 17.0938 123.898 17.6562 123.789 18.25C123.68 18.8281 123.586 19.4141 123.508 20.0078C123.43 20.5859 123.336 21.1094 123.227 21.5781C123.305 21.9219 123.422 22.25 123.578 22.5625C123.75 22.8594 123.914 23.1719 124.07 23.5C124.383 23.5781 124.68 23.6875 124.961 23.8281C125.258 23.9688 125.469 24.1953 125.594 24.5078C125.562 24.8203 125.461 25.0625 125.289 25.2344C125.117 25.4062 124.906 25.5859 124.656 25.7734C124.484 25.7109 124.344 25.6562 124.234 25.6094C124.125 25.5781 123.961 25.5781 123.742 25.6094C123.445 25.375 123.164 25.1875 122.898 25.0469C122.648 24.9062 122.422 24.6641 122.219 24.3203C122.188 24.2734 122.141 24.25 122.078 24.25H121.867C121.789 24.0625 121.695 23.8672 121.586 23.6641C121.477 23.4453 121.367 23.2266 121.258 23.0078C121.148 22.7734 121.055 22.5469 120.977 22.3281C120.898 22.0938 120.859 21.8828 120.859 21.6953C120.859 20.8984 120.93 20.1094 121.07 19.3281C121.227 18.5312 121.305 17.7266 121.305 16.9141V16.6797C120.992 16.7578 120.68 16.8672 120.367 17.0078C120.07 17.1484 119.766 17.2578 119.453 17.3359C119.344 17.3672 119.281 17.4219 119.266 17.5C119.25 17.5781 119.203 17.6406 119.125 17.6875C118.969 17.7031 118.82 17.7188 118.68 17.7344C118.539 17.7344 118.406 17.7344 118.281 17.7344C118.016 17.7344 117.734 17.7266 117.438 17.7109C117.156 17.6797 116.875 17.625 116.594 17.5469C116.312 17.4688 116.047 17.3594 115.797 17.2188C115.562 17.0781 115.352 16.8984 115.164 16.6797C115.133 16.6953 115.094 16.7109 115.047 16.7266C115 16.7422 114.953 16.75 114.906 16.75C114.859 16.75 114.812 16.7422 114.766 16.7266C114.719 16.7109 114.68 16.6953 114.648 16.6797C114.523 16.5078 114.422 16.3203 114.344 16.1172L114.109 15.5078C114.031 15.3047 113.945 15.1094 113.852 14.9219C113.758 14.7344 113.633 14.5625 113.477 14.4062C113.43 14.125 113.406 13.8516 113.406 13.5859C113.406 13.3047 113.43 13.0312 113.477 12.7656C113.508 12.5 113.562 12.2344 113.641 11.9688C113.578 11.7812 113.539 11.5859 113.523 11.3828C113.492 11.1797 113.477 10.9766 113.477 10.7734C113.477 10.5391 113.5 10.2969 113.547 10.0469C113.594 9.79688 113.672 9.57031 113.781 9.36719C113.891 9.14844 114.047 8.96875 114.25 8.82812C114.438 8.6875 114.672 8.61719 114.953 8.61719C115.266 8.61719 115.555 8.70312 115.82 8.875C116.086 9.03125 116.344 9.19531 116.594 9.36719C116.625 9.55469 116.648 9.74219 116.664 9.92969C116.68 10.1016 116.688 10.2891 116.688 10.4922C116.688 10.8672 116.664 11.25 116.617 11.6406C116.586 12.0156 116.57 12.3984 116.57 12.7891C116.57 13.1953 116.617 13.5781 116.711 13.9375C116.82 14.2812 117.008 14.6094 117.273 14.9219H117.367C117.492 14.9062 117.602 14.9297 117.695 14.9922C117.789 15.0547 117.898 15.0859 118.023 15.0859C118.133 15.0859 118.219 15.0469 118.281 14.9688C118.344 14.875 118.422 14.8281 118.516 14.8281C118.609 14.8281 118.68 14.8438 118.727 14.875C118.773 14.9062 118.812 14.9219 118.844 14.9219C119.016 14.9219 119.211 14.8594 119.43 14.7344C119.648 14.6094 119.789 14.4688 119.852 14.3125C119.914 14.3594 119.992 14.3828 120.086 14.3828C120.211 14.3828 120.328 14.3438 120.438 14.2656C120.547 14.1875 120.688 14.1484 120.859 14.1484C120.953 14.1484 120.984 14.0938 120.953 13.9844C120.938 13.8594 120.969 13.7812 121.047 13.75C121.234 13.6719 121.438 13.5625 121.656 13.4219C121.891 13.2656 122.078 13.1719 122.219 13.1406C122.297 12.9375 122.391 12.75 122.5 12.5781C122.625 12.3906 122.75 12.2188 122.875 12.0625C122.922 11.7031 123.016 11.3594 123.156 11.0312C123.297 10.7031 123.445 10.375 123.602 10.0469C123.758 9.71875 123.906 9.39062 124.047 9.0625C124.188 8.73438 124.281 8.39062 124.328 8.03125C124.5 7.85938 124.633 7.67188 124.727 7.46875C124.836 7.26562 124.93 7.0625 125.008 6.85938C125.164 6.8125 125.359 6.78906 125.594 6.78906C125.828 6.77344 126.031 6.76562 126.203 6.76562H126.602C126.648 6.85938 126.711 6.94531 126.789 7.02344L127.023 7.25781C126.883 7.47656 126.812 7.69531 126.812 7.91406C126.812 8.08594 126.852 8.25781 126.93 8.42969C127.008 8.58594 127.094 8.73438 127.188 8.875ZM159.297 16.7266V16.8906C159.297 16.9375 159.289 16.9844 159.273 17.0312C159.102 17.3594 158.891 17.6094 158.641 17.7812C158.391 17.9531 158.078 18.0391 157.703 18.0391C157.453 18.0391 157.266 18.0156 157.141 17.9688C157.031 17.9219 156.883 17.8359 156.695 17.7109C156.414 17.7422 156.094 17.7734 155.734 17.8047C155.375 17.8203 155.016 17.8594 154.656 17.9219C154.297 17.9688 153.953 18.0391 153.625 18.1328C153.312 18.2266 153.047 18.3672 152.828 18.5547C152.688 19.6328 152.609 20.7109 152.594 21.7891C152.594 22.8516 152.578 23.9219 152.547 25C152.672 25.3281 152.758 25.6875 152.805 26.0781C152.852 26.4844 152.883 26.8516 152.898 27.1797C153.008 27.3672 153.094 27.5547 153.156 27.7422C153.219 27.9453 153.281 28.1484 153.344 28.3516C153.406 28.5547 153.477 28.75 153.555 28.9375C153.648 29.125 153.766 29.2969 153.906 29.4531C154.031 29.4531 154.141 29.4609 154.234 29.4766C154.344 29.5078 154.453 29.5391 154.562 29.5703V29.7109C154.562 29.9453 154.633 30.1172 154.773 30.2266C154.914 30.3359 155.07 30.4531 155.242 30.5781C155.289 30.75 155.312 30.9141 155.312 31.0703C155.312 31.3359 155.25 31.5859 155.125 31.8203C155.016 32.0547 154.828 32.2188 154.562 32.3125C154.406 32.3125 154.258 32.2891 154.117 32.2422C153.977 32.2109 153.828 32.1953 153.672 32.1953C153.562 32.1953 153.445 32.2109 153.32 32.2422C153.242 32.2109 153.172 32.1641 153.109 32.1016C153.062 32.0547 153.008 32.0078 152.945 31.9609C152.883 31.9141 152.812 31.875 152.734 31.8438C152.672 31.8125 152.586 31.8047 152.477 31.8203C152.398 31.6016 152.273 31.3984 152.102 31.2109C151.93 31.0234 151.719 30.9453 151.469 30.9766C151.484 30.9141 151.492 30.8203 151.492 30.6953C151.492 30.4766 151.445 30.2734 151.352 30.0859C151.273 29.8984 151.148 29.75 150.977 29.6406C150.898 29.2812 150.828 28.8828 150.766 28.4453C150.703 28.0234 150.57 27.6562 150.367 27.3438C150.367 26.8906 150.32 26.4531 150.227 26.0312C150.133 25.625 150.047 25.2031 149.969 24.7656C150.031 24.5156 150.062 24.2344 150.062 23.9219C150.062 23.7031 150.055 23.4922 150.039 23.2891C150.023 23.0703 150.016 22.8594 150.016 22.6562C150.016 22.4375 150.031 22.2266 150.062 22.0234C150.094 21.8047 150.172 21.5938 150.297 21.3906C150.203 21.2344 150.141 21.0781 150.109 20.9219C150.078 20.75 150.062 20.5781 150.062 20.4062C150.062 20.1406 150.078 19.8828 150.109 19.6328L150.203 18.8828C150.172 18.8672 150.117 18.8594 150.039 18.8594C149.883 18.8594 149.75 18.8906 149.641 18.9531L149.289 19.1172C149.211 19.1016 149.141 19.0938 149.078 19.0938H148.867C148.633 19.0938 148.398 19.1328 148.164 19.2109C147.945 19.2734 147.75 19.3906 147.578 19.5625C147.047 19.5625 146.516 19.6172 145.984 19.7266C145.453 19.8203 144.922 19.9375 144.391 20.0781C143.875 20.2188 143.359 20.375 142.844 20.5469C142.328 20.7031 141.812 20.8438 141.297 20.9688C141.172 21.5781 141.078 22.1953 141.016 22.8203C140.953 23.4297 140.922 24.0547 140.922 24.6953V25.2578C140.922 25.4609 140.938 25.6562 140.969 25.8438C140.984 25.9688 141.023 26.0781 141.086 26.1719C141.164 26.2812 141.203 26.3984 141.203 26.5234C141.203 26.6328 141.18 26.7188 141.133 26.7812C141.242 26.9688 141.406 27.1328 141.625 27.2734C141.859 27.1953 142.062 27.1562 142.234 27.1562C142.516 27.1562 142.781 27.2188 143.031 27.3438C143.281 27.4844 143.547 27.5781 143.828 27.625C143.766 27.8438 143.672 28.0547 143.547 28.2578C143.422 28.4766 143.344 28.7109 143.312 28.9609C143.25 28.9922 143.188 29.0078 143.125 29.0078C143.078 29.0078 143.031 29.0078 142.984 29.0078C142.938 29.0234 142.898 29.0547 142.867 29.1016C142.852 29.1484 142.859 29.2422 142.891 29.3828C142.672 29.4922 142.453 29.5625 142.234 29.5938C142.016 29.6406 141.789 29.6719 141.555 29.6875C141.336 29.7031 141.109 29.7109 140.875 29.7109C140.656 29.7109 140.43 29.7188 140.195 29.7344C140.195 29.6406 140.172 29.5625 140.125 29.5C140.094 29.4531 140.047 29.4141 139.984 29.3828C139.922 29.3672 139.852 29.3438 139.773 29.3125C139.711 29.2812 139.656 29.2422 139.609 29.1953C139.484 29.0859 139.383 28.9375 139.305 28.75C139.242 28.5781 139.172 28.3906 139.094 28.1875C139.031 28 138.961 27.8125 138.883 27.625C138.805 27.4375 138.711 27.2656 138.602 27.1094C138.57 26.7656 138.547 26.4297 138.531 26.1016C138.516 25.7734 138.508 25.4375 138.508 25.0938C138.508 24.4531 138.531 23.8281 138.578 23.2188C138.625 22.5938 138.664 21.9531 138.695 21.2969C138.555 21.1562 138.391 21.0938 138.203 21.1094C138.031 21.125 137.859 21.1094 137.688 21.0625C137.5 20.8281 137.344 20.5703 137.219 20.2891C137.094 19.9922 137.031 19.6875 137.031 19.375C137.031 19.2188 137.055 19.0547 137.102 18.8828C137.242 18.8359 137.398 18.7891 137.57 18.7422C137.742 18.6953 137.836 18.5703 137.852 18.3672C137.961 18.4297 138.094 18.4609 138.25 18.4609C138.406 18.4609 138.562 18.4375 138.719 18.3906C138.875 18.3438 139.031 18.3047 139.188 18.2734C139.25 18.0234 139.297 17.7812 139.328 17.5469C139.375 17.2969 139.383 17.0391 139.352 16.7734C139.57 16.4453 139.711 16.0859 139.773 15.6953C139.852 15.3047 139.906 14.9297 139.938 14.5703V14.2422C139.938 14.1328 139.945 14.0234 139.961 13.9141C139.992 13.7422 140.039 13.5469 140.102 13.3281C140.164 13.1094 140.219 12.9062 140.266 12.7188C140.344 12.4219 140.391 12.1406 140.406 11.875C140.438 11.6094 140.453 11.3359 140.453 11.0547V10.9609C140.453 10.8828 140.422 10.8281 140.359 10.7969C140.297 10.75 140.266 10.6875 140.266 10.6094L140.289 10.5625C140.352 10.0625 140.422 9.57031 140.5 9.08594C140.594 8.58594 140.719 8.09375 140.875 7.60938C140.75 7.25 140.688 6.84375 140.688 6.39062C140.688 5.79688 140.781 5.22656 140.969 4.67969C140.875 4.42969 140.828 4.1875 140.828 3.95312C140.828 3.76562 140.836 3.57812 140.852 3.39062C140.883 3.20312 140.891 3.01562 140.875 2.82812C141.031 2.75 141.156 2.64062 141.25 2.5C141.359 2.35938 141.484 2.24219 141.625 2.14844C142.094 2.13281 142.484 2.28906 142.797 2.61719C143.125 2.94531 143.289 3.34375 143.289 3.8125C143.289 4.17188 143.188 4.51562 142.984 4.84375C143.047 5.14062 143.078 5.48438 143.078 5.875C143.078 6.45312 143.039 7.03125 142.961 7.60938C142.883 8.1875 142.859 8.77344 142.891 9.36719C142.797 9.58594 142.75 9.85156 142.75 10.1641C142.766 10.4766 142.758 10.7422 142.727 10.9609C142.695 11.1797 142.648 11.4062 142.586 11.6406C142.523 11.8594 142.484 12.0781 142.469 12.2969C142.453 12.6562 142.438 13.0156 142.422 13.375C142.422 13.7344 142.383 14.0781 142.305 14.4062C142.273 14.5312 142.227 14.6406 142.164 14.7344C142.117 14.8125 142.078 14.9062 142.047 15.0156C141.984 15.3438 141.961 15.6797 141.977 16.0234C142.008 16.3516 142.008 16.6875 141.977 17.0312C141.961 17.1406 141.93 17.25 141.883 17.3594C141.852 17.4688 141.836 17.5859 141.836 17.7109C141.836 17.7734 141.852 17.8516 141.883 17.9453C143.305 17.8203 144.719 17.6094 146.125 17.3125C147.531 17.0156 148.945 16.7578 150.367 16.5391C150.477 16.3359 150.531 16.125 150.531 15.9062C150.531 15.7812 150.508 15.6562 150.461 15.5312C150.617 15.0156 150.734 14.5 150.812 13.9844C150.906 13.4531 150.984 12.9297 151.047 12.4141C151.109 11.8984 151.164 11.3828 151.211 10.8672C151.258 10.3359 151.32 9.8125 151.398 9.29688L151.539 8.5C151.586 8.23438 151.648 7.97656 151.727 7.72656C151.758 7.63281 151.789 7.53906 151.82 7.44531C151.867 7.35156 151.891 7.26562 151.891 7.1875C151.891 7.10938 151.844 7.05469 151.75 7.02344C151.672 6.99219 151.633 6.95312 151.633 6.90625C151.633 6.875 151.641 6.85938 151.656 6.85938C151.688 6.84375 151.711 6.84375 151.727 6.85938C151.805 6.71875 151.852 6.57031 151.867 6.41406C151.883 6.25781 151.891 6.10156 151.891 5.94531C151.906 5.78906 151.93 5.64062 151.961 5.5C151.992 5.34375 152.055 5.20312 152.148 5.07812C152.133 4.96875 152.102 4.86719 152.055 4.77344C152.008 4.67969 151.984 4.57031 151.984 4.44531C151.969 4.42969 151.969 4.41406 151.984 4.39844C152.016 4.25781 152.031 4.14062 152.031 4.04688C152.047 3.9375 152.055 3.8125 152.055 3.67188C152.055 3.48438 152.141 3.33594 152.312 3.22656C152.234 2.96094 152.18 2.67188 152.148 2.35938C152.117 2.04688 152.102 1.74219 152.102 1.44531C152.102 1.03906 152.195 0.703125 152.383 0.4375C152.586 0.15625 152.914 0.015625 153.367 0.015625C153.602 0.015625 153.82 0.0625 154.023 0.15625C154.242 0.25 154.422 0.382813 154.562 0.554688C154.641 0.914062 154.68 1.25 154.68 1.5625C154.68 1.78125 154.664 1.99219 154.633 2.19531C154.617 2.38281 154.609 2.58594 154.609 2.80469C154.609 2.97656 154.625 3.14062 154.656 3.29688C154.688 3.4375 154.719 3.58594 154.75 3.74219C154.609 3.96094 154.508 4.20312 154.445 4.46875C154.383 4.73438 154.336 5.00781 154.305 5.28906C154.289 5.57031 154.273 5.85938 154.258 6.15625C154.258 6.4375 154.25 6.69531 154.234 6.92969C154.188 7.44531 154.109 7.95312 154 8.45312C153.906 8.95312 153.797 9.45312 153.672 9.95312C153.719 10.125 153.742 10.2812 153.742 10.4219C153.742 10.7031 153.703 10.9844 153.625 11.2656C153.547 11.5312 153.523 11.7969 153.555 12.0625C153.445 12.3438 153.375 12.6328 153.344 12.9297C153.312 13.2109 153.289 13.5078 153.273 13.8203L153.227 14.7344C153.211 15.0312 153.156 15.3203 153.062 15.6016C153.094 15.6797 153.148 15.7266 153.227 15.7422C153.32 15.7422 153.352 15.8047 153.32 15.9297C153.68 15.8203 154.062 15.7734 154.469 15.7891C154.875 15.7891 155.258 15.7891 155.617 15.7891C155.852 15.7891 156.086 15.7891 156.32 15.7891C156.555 15.7734 156.789 15.7422 157.023 15.6953C157.258 15.6328 157.492 15.5625 157.727 15.4844C157.977 15.3906 158.219 15.3438 158.453 15.3438C158.781 15.3438 159.031 15.4609 159.203 15.6953C159.234 15.8672 159.258 16.0391 159.273 16.2109C159.289 16.3828 159.297 16.5547 159.297 16.7266ZM173.969 10.0938V10.1875C173.859 10.2188 173.805 10.2969 173.805 10.4219C173.633 10.5 173.453 10.5625 173.266 10.6094C173.078 10.6406 172.898 10.6953 172.727 10.7734C172.555 10.7578 172.375 10.75 172.188 10.75C172.016 10.7344 171.844 10.7266 171.672 10.7266C171.203 10.7266 170.734 10.7422 170.266 10.7734C169.797 10.8047 169.328 10.8047 168.859 10.7734C168.641 10.8984 168.398 11 168.133 11.0781C167.883 11.1406 167.641 11.1719 167.406 11.1719C167.219 11.1719 167.055 11.1484 166.914 11.1016C166.539 11.2891 166.125 11.4453 165.672 11.5703C165.234 11.6953 164.789 11.8203 164.336 11.9453C163.883 12.0547 163.445 12.1875 163.023 12.3438C162.617 12.4844 162.258 12.6875 161.945 12.9531C161.914 13.1719 161.891 13.3906 161.875 13.6094C161.859 13.8125 161.852 14.0156 161.852 14.2188C161.852 14.4375 161.859 14.6406 161.875 14.8281C161.906 15.0156 161.961 15.2031 162.039 15.3906C162.117 15.4219 162.203 15.4453 162.297 15.4609C162.406 15.4766 162.5 15.4844 162.578 15.4844C162.656 15.4844 162.734 15.4766 162.812 15.4609C162.891 15.4297 162.945 15.375 162.977 15.2969C163.211 15.2656 163.445 15.2578 163.68 15.2734C163.914 15.2734 164.148 15.2734 164.383 15.2734C164.617 15.2734 164.844 15.2656 165.062 15.25C165.297 15.2344 165.523 15.1953 165.742 15.1328C165.992 15.0703 166.234 15.0312 166.469 15.0156C166.719 15 166.961 14.9844 167.195 14.9688C167.43 14.9531 167.672 14.9297 167.922 14.8984C168.172 14.8516 168.43 14.7656 168.695 14.6406C168.898 14.7188 169.102 14.7578 169.305 14.7578C169.523 14.7578 169.734 14.7734 169.938 14.8047C170.047 14.8828 170.133 14.9688 170.195 15.0625C170.273 15.1562 170.312 15.2656 170.312 15.3906C170.312 15.6094 170.234 15.8281 170.078 16.0469C169.922 16.2656 169.797 16.4688 169.703 16.6562H169.445C169.07 16.6562 168.703 16.7109 168.344 16.8203C168 16.9141 167.648 17.0312 167.289 17.1719C166.945 17.2969 166.594 17.4141 166.234 17.5234C165.891 17.6172 165.531 17.6641 165.156 17.6641C165.094 17.6641 165.055 17.7031 165.039 17.7812C165.039 17.8438 165.023 17.8906 164.992 17.9219C164.914 17.9062 164.797 17.8984 164.641 17.8984C164.281 17.8984 163.938 17.9375 163.609 18.0156C163.281 18.0938 162.945 18.1328 162.602 18.1328C162.508 18.1328 162.414 18.1328 162.32 18.1328C162.227 18.1172 162.133 18.1016 162.039 18.0859C161.961 18.2109 161.859 18.2969 161.734 18.3438C161.609 18.375 161.492 18.4375 161.383 18.5312C161.336 18.6719 161.305 18.8438 161.289 19.0469C161.289 19.25 161.281 19.4609 161.266 19.6797C161.266 19.8828 161.25 20.0781 161.219 20.2656C161.188 20.4531 161.125 20.6016 161.031 20.7109C161.047 20.7891 161.109 20.8203 161.219 20.8047C161.328 20.7734 161.383 20.8203 161.383 20.9453C161.383 21.0859 161.367 21.2344 161.336 21.3906C161.305 21.5469 161.289 21.7031 161.289 21.8594C161.289 22.1562 161.32 22.4844 161.383 22.8438C161.461 23.1875 161.57 23.5078 161.711 23.8047C161.867 24.1016 162.07 24.3516 162.32 24.5547C162.57 24.7422 162.883 24.8359 163.258 24.8359C163.508 24.8359 163.742 24.7891 163.961 24.6953C164.18 24.6016 164.359 24.4453 164.5 24.2266L164.617 24.2031C164.68 24.2031 164.734 24.2109 164.781 24.2266C164.844 24.2422 164.906 24.25 164.969 24.25C165.062 24.25 165.18 24.1953 165.32 24.0859C165.477 23.9609 165.641 23.8203 165.812 23.6641C166 23.5078 166.188 23.3594 166.375 23.2188C166.562 23.0625 166.742 22.9531 166.914 22.8906C167.023 22.6719 167.125 22.4531 167.219 22.2344C167.328 22.0156 167.484 21.8438 167.688 21.7188V21.0391C167.844 20.8672 168.008 20.7109 168.18 20.5703C168.367 20.4297 168.508 20.25 168.602 20.0312C168.68 20.0625 168.75 20.0859 168.812 20.1016C168.891 20.1172 168.969 20.125 169.047 20.125C169.125 20.125 169.203 20.1172 169.281 20.1016C169.375 20.0859 169.461 20.0625 169.539 20.0312C169.664 20.2031 169.758 20.3984 169.82 20.6172C169.898 20.8203 169.992 21.0156 170.102 21.2031C169.961 21.4844 169.797 21.8203 169.609 22.2109C169.422 22.6016 169.219 22.9922 169 23.3828C168.781 23.7734 168.547 24.1484 168.297 24.5078C168.062 24.8516 167.828 25.1172 167.594 25.3047C167.547 25.3516 167.445 25.4062 167.289 25.4688C167.117 25.5938 166.961 25.7109 166.82 25.8203C166.68 25.9453 166.547 26.0859 166.422 26.2422C165.969 26.3828 165.531 26.5703 165.109 26.8047C164.703 27.0391 164.297 27.2656 163.891 27.4844C163.703 27.4375 163.5 27.4141 163.281 27.4141C163.094 27.4141 162.906 27.4219 162.719 27.4375C162.531 27.4688 162.328 27.4844 162.109 27.4844C162.047 27.4062 161.953 27.3516 161.828 27.3203C161.719 27.3047 161.68 27.2266 161.711 27.0859C161.18 27.0547 160.75 26.9062 160.422 26.6406C160.094 26.3906 159.812 26.0781 159.578 25.7031C159.359 25.3281 159.18 24.9219 159.039 24.4844C158.898 24.0469 158.75 23.625 158.594 23.2188V23.1484C158.594 23.0703 158.625 23.0234 158.688 23.0078C158.75 22.9922 158.781 22.9453 158.781 22.8672C158.781 22.8359 158.773 22.8125 158.758 22.7969C158.711 22.625 158.672 22.4766 158.641 22.3516C158.609 22.2266 158.594 22.0781 158.594 21.9062C158.594 21.6562 158.609 21.4141 158.641 21.1797C158.672 20.9297 158.688 20.6797 158.688 20.4297C158.688 20.1797 158.656 19.9609 158.594 19.7734C158.656 19.6953 158.711 19.5938 158.758 19.4688C158.789 19.3281 158.812 19.1875 158.828 19.0469C158.844 18.9062 158.852 18.7656 158.852 18.625C158.867 18.4844 158.891 18.3594 158.922 18.25C158.859 18.0781 158.805 17.9297 158.758 17.8047C158.711 17.6641 158.688 17.5 158.688 17.3125V17.1484C158.844 16.8828 158.977 16.6094 159.086 16.3281C159.195 16.0469 159.312 15.7578 159.438 15.4609V15.3906C159.438 14.9375 159.422 14.4844 159.391 14.0312C159.359 13.5781 159.344 13.125 159.344 12.6719V12.2266C159.344 12.0703 159.352 11.9219 159.367 11.7812C159.492 11.7188 159.586 11.6328 159.648 11.5234C159.711 11.4141 159.805 11.3281 159.93 11.2656H160.703L160.844 11.0312C160.891 10.9531 160.922 10.8672 160.938 10.7734C161.109 10.7266 161.273 10.6641 161.43 10.5859C161.602 10.4922 161.758 10.3984 161.898 10.3047C162.117 10.1797 162.312 10.0703 162.484 9.97656C162.672 9.86719 162.852 9.78125 163.023 9.71875C163.211 9.64062 163.406 9.57812 163.609 9.53125C163.812 9.48438 164.047 9.44531 164.312 9.41406C164.438 9.41406 164.516 9.39062 164.547 9.34375C164.594 9.29688 164.656 9.24219 164.734 9.17969C164.922 9.21094 165.109 9.24219 165.297 9.27344C165.484 9.28906 165.672 9.29688 165.859 9.29688C166.234 9.29688 166.586 9.22656 166.914 9.08594C167.383 9.08594 167.844 9.07812 168.297 9.0625C168.766 9.04688 169.234 9.03906 169.703 9.03906C170.109 9.03906 170.516 9.05469 170.922 9.08594C171.328 9.11719 171.727 9.17188 172.117 9.25C172.258 9.20312 172.414 9.17969 172.586 9.17969C172.773 9.17969 172.961 9.20312 173.148 9.25C173.352 9.28125 173.547 9.28125 173.734 9.25C173.75 9.42188 173.789 9.57031 173.852 9.69531C173.93 9.80469 173.969 9.9375 173.969 10.0938ZM202.82 20.9219C202.789 21.1562 202.703 21.3359 202.562 21.4609C202.438 21.5859 202.289 21.7031 202.117 21.8125C202.039 21.7969 201.961 21.7891 201.883 21.7891C201.82 21.7734 201.75 21.7656 201.672 21.7656C201.188 21.75 200.727 21.8125 200.289 21.9531C199.867 22.0938 199.43 22.1953 198.977 22.2578C198.82 22.2891 198.672 22.3047 198.531 22.3047C198.406 22.2891 198.273 22.2969 198.133 22.3281C197.633 22.4062 197.102 22.4688 196.539 22.5156C195.977 22.5625 195.414 22.625 194.852 22.7031C194.289 22.7656 193.734 22.8516 193.188 22.9609C192.656 23.0547 192.156 23.1953 191.688 23.3828C191.641 23.3516 191.594 23.3203 191.547 23.2891C191.5 23.2422 191.445 23.2188 191.383 23.2188C191.227 23.2188 191.078 23.2422 190.938 23.2891C190.797 23.3359 190.656 23.3516 190.516 23.3359C190.359 23.4297 190.188 23.5 190 23.5469C189.828 23.5781 189.648 23.6094 189.461 23.6406C189.289 23.6562 189.117 23.6875 188.945 23.7344C188.773 23.7812 188.609 23.8672 188.453 23.9922C188.328 23.9297 188.172 23.8984 187.984 23.8984C187.812 23.8828 187.695 23.8203 187.633 23.7109C187.273 23.8828 186.891 23.9922 186.484 24.0391C186.094 24.0859 185.695 24.1016 185.289 24.0859C185.023 24.0703 184.719 24.0312 184.375 23.9688C184.031 23.9062 183.688 23.8203 183.344 23.7109C183 23.5859 182.68 23.4453 182.383 23.2891C182.086 23.1172 181.859 22.9141 181.703 22.6797C181.594 22.5234 181.516 22.3516 181.469 22.1641C181.422 21.9766 181.312 21.8359 181.141 21.7422C181.188 21.3828 181.242 21.0312 181.305 20.6875C181.367 20.3438 181.43 19.9922 181.492 19.6328C181.805 19.3672 182.102 19.0859 182.383 18.7891C182.664 18.4922 182.93 18.1797 183.18 17.8516C183.477 17.7109 183.75 17.5391 184 17.3359C184.266 17.1328 184.523 16.9297 184.773 16.7266C185.039 16.5078 185.297 16.2969 185.547 16.0938C185.812 15.8906 186.094 15.7109 186.391 15.5547C186.438 15.4453 186.5 15.3594 186.578 15.2969C186.672 15.2188 186.766 15.1484 186.859 15.0859C186.953 15.0078 187.039 14.9297 187.117 14.8516C187.195 14.7578 187.25 14.6484 187.281 14.5234C187.828 14.1953 188.305 13.7812 188.711 13.2812C189.117 12.7812 189.383 12.2188 189.508 11.5938C189.242 11.375 188.938 11.2344 188.594 11.1719C188.266 11.0938 187.922 11.0391 187.562 11.0078C187.25 10.9922 186.922 10.9922 186.578 11.0078C186.25 11.0234 185.914 11.0156 185.57 10.9844C185.227 11.0938 184.867 11.1641 184.492 11.1953C184.133 11.2266 183.773 11.2578 183.414 11.2891C183.055 11.3047 182.695 11.3516 182.336 11.4297C181.992 11.4922 181.656 11.6172 181.328 11.8047C181.266 11.8047 181.203 11.7969 181.141 11.7812C181.094 11.7656 181.039 11.7578 180.977 11.7578C180.477 11.7422 180.008 11.8438 179.57 12.0625C179.133 12.2656 178.703 12.4688 178.281 12.6719C178.25 12.7344 178.234 12.7812 178.234 12.8125C178.234 12.9062 178.25 13 178.281 13.0938C178.328 13.1719 178.352 13.2578 178.352 13.3516C178.336 13.3672 178.328 13.3828 178.328 13.3984C178.328 13.4141 178.32 13.4297 178.305 13.4453C178.289 13.5234 178.266 13.5938 178.234 13.6562C178.219 13.7188 178.195 13.7891 178.164 13.8672C177.992 14.3672 177.898 14.8594 177.883 15.3438C177.867 15.75 177.867 16.1484 177.883 16.5391C177.898 16.9297 177.898 17.3281 177.883 17.7344C177.852 18.2344 177.773 18.7031 177.648 19.1406C177.727 19.5156 177.797 19.9141 177.859 20.3359C177.922 20.7422 178 21.1484 178.094 21.5547C178.188 21.9609 178.297 22.3594 178.422 22.75C178.562 23.125 178.742 23.4844 178.961 23.8281C178.945 23.8594 178.953 23.8828 178.984 23.8984C179.016 23.9141 179.047 23.9219 179.078 23.9219H179.266C179.344 23.9219 179.375 23.9531 179.359 24.0156C179.391 24.0625 179.414 24.1094 179.43 24.1562C179.445 24.1875 179.477 24.2188 179.523 24.25C179.555 24.2969 179.555 24.3594 179.523 24.4375C179.508 24.75 179.43 25.0391 179.289 25.3047C179.148 25.5703 179.062 25.8594 179.031 26.1719C178.844 26.2188 178.672 26.2422 178.516 26.2422C178.25 26.2266 178.016 26.1484 177.812 26.0078C177.609 25.8828 177.422 25.7266 177.25 25.5391C177.078 25.3516 176.914 25.1641 176.758 24.9766C176.602 24.7734 176.43 24.6016 176.242 24.4609C176.133 24.0234 176.023 23.5391 175.914 23.0078C175.82 22.4766 175.656 22.0234 175.422 21.6484C175.484 21.5078 175.516 21.3359 175.516 21.1328C175.531 20.8203 175.5 20.5156 175.422 20.2188C175.359 19.9062 175.344 19.5938 175.375 19.2812C175.375 19.1094 175.391 18.9375 175.422 18.7656C175.469 18.5938 175.5 18.4219 175.516 18.25C175.531 17.9844 175.5 17.7266 175.422 17.4766C175.359 17.2266 175.336 16.9688 175.352 16.7031C175.367 16.5781 175.391 16.4609 175.422 16.3516C175.469 16.2266 175.531 16.1172 175.609 16.0234C175.531 15.8359 175.508 15.6562 175.539 15.4844C175.555 15.2188 175.586 14.9688 175.633 14.7344C175.68 14.5 175.711 14.2656 175.727 14.0312C175.727 13.9062 175.719 13.7891 175.703 13.6797C175.688 13.5547 175.664 13.4375 175.633 13.3281L175.422 13.2578C175.328 13.2578 175.234 13.2812 175.141 13.3281C175.062 13.375 174.992 13.4297 174.93 13.4922C174.867 13.5547 174.812 13.6094 174.766 13.6562C174.719 13.6875 174.672 13.7031 174.625 13.7031C174.594 13.7031 174.555 13.7031 174.508 13.7031C174.477 13.6875 174.445 13.6797 174.414 13.6797C174.383 13.6797 174.32 13.7109 174.227 13.7734C174.148 13.8359 174.047 13.9062 173.922 13.9844C173.812 14.0469 173.703 14.1172 173.594 14.1953C173.484 14.2578 173.398 14.2969 173.336 14.3125C173.164 14.2812 173.023 14.2266 172.914 14.1484C172.82 14.0547 172.727 13.9688 172.633 13.8906C172.555 13.7969 172.469 13.7188 172.375 13.6562C172.281 13.5781 172.164 13.5469 172.023 13.5625C171.977 13.4688 171.953 13.3672 171.953 13.2578C171.938 13.1484 171.938 13.0391 171.953 12.9297V12.5547C172.062 12.3516 172.211 12.1875 172.398 12.0625C172.57 11.9219 172.758 11.8047 172.961 11.7109L173.57 11.4297C173.773 11.3359 173.961 11.2188 174.133 11.0781H174.344C174.625 11.0938 174.867 11.0391 175.07 10.9141C175.289 10.7891 175.492 10.6484 175.68 10.4922C175.867 10.3203 176.055 10.1484 176.242 9.97656C176.445 9.80469 176.664 9.67188 176.898 9.57812C177.07 9.65625 177.25 9.72656 177.438 9.78906C177.625 9.83594 177.82 9.86719 178.023 9.88281C178.227 9.88281 178.438 9.85156 178.656 9.78906C178.875 9.72656 179.047 9.60938 179.172 9.4375C179.25 9.46875 179.312 9.49219 179.359 9.50781C179.422 9.50781 179.492 9.50781 179.57 9.50781C179.805 9.52344 180.039 9.49219 180.273 9.41406C180.508 9.32031 180.734 9.21094 180.953 9.08594C181.266 9.10156 181.57 9.08594 181.867 9.03906C182.18 8.97656 182.484 8.91406 182.781 8.85156C183.094 8.78906 183.398 8.73438 183.695 8.6875C184.008 8.625 184.32 8.60156 184.633 8.61719C185.148 8.63281 185.656 8.58594 186.156 8.47656C186.656 8.36719 187.164 8.32812 187.68 8.35938C188.039 8.375 188.391 8.40625 188.734 8.45312C189.094 8.48438 189.453 8.49219 189.812 8.47656C190.016 8.57031 190.195 8.65625 190.352 8.73438C190.523 8.79688 190.734 8.8125 190.984 8.78125C191.484 9.20312 191.938 9.69531 192.344 10.2578V10.6562C192.328 11.0156 192.266 11.3672 192.156 11.7109C192.047 12.0547 191.914 12.3984 191.758 12.7422C191.617 13.0703 191.461 13.3984 191.289 13.7266C191.117 14.0391 190.953 14.3516 190.797 14.6641C189.781 15.5859 188.766 16.5 187.75 17.4062C186.734 18.3125 185.688 19.1875 184.609 20.0312C184.578 20.1875 184.531 20.3281 184.469 20.4531C184.422 20.5781 184.391 20.7109 184.375 20.8516C184.375 20.9297 184.383 20.9922 184.398 21.0391C184.508 21.0703 184.602 21.1328 184.68 21.2266C184.773 21.3047 184.805 21.4141 184.773 21.5547H184.984C185.062 21.5547 185.102 21.5859 185.102 21.6484L185.477 21.6719C186.07 21.7031 186.664 21.6875 187.258 21.625C187.852 21.5625 188.445 21.4922 189.039 21.4141C189.648 21.3359 190.25 21.2656 190.844 21.2031C191.438 21.125 192.031 21.0781 192.625 21.0625C192.766 21.0156 192.914 20.9766 193.07 20.9453C193.227 20.9141 193.367 20.8516 193.492 20.7578H193.562C193.672 20.7578 193.75 20.7891 193.797 20.8516C193.859 20.9141 193.945 20.9531 194.055 20.9688C194.133 20.9688 194.211 20.9531 194.289 20.9219C194.383 20.8906 194.477 20.8672 194.57 20.8516C194.789 20.7891 195.016 20.75 195.25 20.7344C195.5 20.7188 195.742 20.6953 195.977 20.6641C196.883 20.5859 197.781 20.5391 198.672 20.5234C199.562 20.4922 200.453 20.375 201.344 20.1719C201.422 20.2812 201.531 20.3594 201.672 20.4062C201.812 20.4375 201.961 20.4766 202.117 20.5234C202.273 20.5547 202.414 20.5938 202.539 20.6406C202.68 20.6875 202.773 20.7812 202.82 20.9219ZM211 11.4297C210.906 11.5703 210.852 11.7266 210.836 11.8984C210.82 12.0703 210.812 12.2266 210.812 12.3672C210.812 12.5547 210.812 12.7422 210.812 12.9297C210.828 13.1016 210.836 13.2734 210.836 13.4453V13.7969C210.805 13.9062 210.758 14.0156 210.695 14.125C210.633 14.2344 210.586 14.3438 210.555 14.4531C210.336 15.0312 210.227 15.6094 210.227 16.1875V16.2344C210.148 16.4219 210.07 16.5938 209.992 16.75C209.93 16.9062 209.867 17.0625 209.805 17.2188C209.742 17.3594 209.695 17.5156 209.664 17.6875C209.633 17.8438 209.625 18.0312 209.641 18.25C209.422 18.7969 209.133 19.2969 208.773 19.75C208.414 20.1875 208.062 20.6406 207.719 21.1094C207.391 21.2344 207.086 21.3984 206.805 21.6016C206.539 21.8047 206.281 22.0312 206.031 22.2812C205.547 22.4375 205.07 22.6172 204.602 22.8203C204.133 23.0234 203.711 23.2969 203.336 23.6406C203.039 23.6719 202.742 23.7188 202.445 23.7812C202.148 23.8438 201.859 23.9375 201.578 24.0625H201.297C201.156 24.0625 201.055 24.0312 200.992 23.9688C200.789 24.0781 200.578 24.1562 200.359 24.2031C200.141 24.2344 199.922 24.25 199.703 24.25C199.422 24.25 199.141 24.2344 198.859 24.2031C198.594 24.1562 198.32 24.1094 198.039 24.0625C197.883 23.8438 197.664 23.6797 197.383 23.5703C197.102 23.4453 196.852 23.3281 196.633 23.2188C196.18 22.5938 195.852 21.9922 195.648 21.4141C195.445 20.8203 195.234 20.1562 195.016 19.4219C195.047 19.2031 195.102 18.9922 195.18 18.7891C195.258 18.5703 195.289 18.3359 195.273 18.0859C195.555 17.2734 195.922 16.5391 196.375 15.8828C196.844 15.2109 197.375 14.5703 197.969 13.9609C197.969 13.8672 197.984 13.7891 198.016 13.7266C198.062 13.6641 198.07 13.5703 198.039 13.4453C198.055 13.4609 198.086 13.4688 198.133 13.4688C198.258 13.4688 198.336 13.4375 198.367 13.375C198.398 13.2969 198.406 13.2109 198.391 13.1172C198.953 12.7578 199.461 12.3438 199.914 11.875C200.383 11.4062 200.914 11.0156 201.508 10.7031C201.555 10.5625 201.633 10.4453 201.742 10.3516C201.852 10.2578 201.938 10.1484 202 10.0234C202.5 9.88281 202.953 9.67188 203.359 9.39062C203.766 9.10938 204.195 8.85938 204.648 8.64062C204.898 8.5 205.133 8.40625 205.352 8.35938C205.586 8.29688 205.836 8.23438 206.102 8.17188C206.195 8.14062 206.281 8.11719 206.359 8.10156C206.438 8.08594 206.523 8.07812 206.617 8.07812C206.898 8.07812 207.172 8.13281 207.438 8.24219C207.703 8.33594 207.977 8.38281 208.258 8.38281C208.336 8.38281 208.398 8.38281 208.445 8.38281C208.508 8.36719 208.57 8.35156 208.633 8.33594C208.898 8.66406 209.234 8.91406 209.641 9.08594C209.734 9.32031 209.844 9.52344 209.969 9.69531C210.109 9.86719 210.25 10.0391 210.391 10.2109C210.531 10.3672 210.656 10.5469 210.766 10.75C210.891 10.9375 210.969 11.1641 211 11.4297ZM208.656 12.6484C208.656 12.5703 208.648 12.5 208.633 12.4375C208.477 12.3906 208.328 12.3281 208.188 12.25C208.047 12.1719 207.891 12.1328 207.719 12.1328C207.609 12.1328 207.5 12.1562 207.391 12.2031C207.375 12.0938 207.328 12.0156 207.25 11.9688C207.188 11.9219 207.109 11.8828 207.016 11.8516C206.938 11.8047 206.852 11.7734 206.758 11.7578C206.68 11.7266 206.609 11.6797 206.547 11.6172C206.5 11.4922 206.445 11.3672 206.383 11.2422C206.336 11.1016 206.242 11 206.102 10.9375C205.961 11.0781 205.797 11.1953 205.609 11.2891C205.422 11.3672 205.227 11.4453 205.023 11.5234C204.836 11.6016 204.648 11.6953 204.461 11.8047C204.289 11.9141 204.141 12.0469 204.016 12.2031H203.594C203.5 12.375 203.367 12.5078 203.195 12.6016C203.023 12.6797 202.875 12.7969 202.75 12.9531C202.5 13.0781 202.266 13.2344 202.047 13.4219C201.844 13.5938 201.641 13.7812 201.438 13.9844C201.234 14.1719 201.031 14.3672 200.828 14.5703C200.641 14.7734 200.438 14.9609 200.219 15.1328C200.016 15.5703 199.789 15.9531 199.539 16.2812C199.305 16.5938 199.078 16.9141 198.859 17.2422C198.656 17.5703 198.477 17.9297 198.32 18.3203C198.18 18.6953 198.109 19.1641 198.109 19.7266V19.9609C198.109 20.0391 198.117 20.1172 198.133 20.1953C198.336 20.4141 198.5 20.6484 198.625 20.8984C198.766 21.1484 198.992 21.3281 199.305 21.4375C199.617 21.5625 199.945 21.6172 200.289 21.6016C200.648 21.5859 200.992 21.625 201.32 21.7188C202.07 21.5781 202.789 21.3516 203.477 21.0391C204.18 20.7109 204.844 20.3203 205.469 19.8672C205.562 19.7891 205.672 19.7109 205.797 19.6328C205.922 19.5391 206.023 19.4453 206.102 19.3516C206.18 19.2734 206.242 19.1875 206.289 19.0938C206.352 19 206.414 18.9141 206.477 18.8359C206.602 18.6328 206.742 18.4297 206.898 18.2266C207.055 18.0234 207.219 17.8359 207.391 17.6641C207.469 17.3203 207.57 16.9922 207.695 16.6797C207.82 16.3516 207.945 16.0312 208.07 15.7188C208.195 15.4062 208.297 15.0859 208.375 14.7578C208.469 14.4297 208.516 14.0859 208.516 13.7266C208.516 13.6484 208.508 13.5625 208.492 13.4688C208.492 13.375 208.484 13.2891 208.469 13.2109C208.594 13.0391 208.656 12.8516 208.656 12.6484ZM227.453 10.0938V10.1875C227.344 10.2188 227.289 10.2969 227.289 10.4219C227.117 10.5 226.938 10.5625 226.75 10.6094C226.562 10.6406 226.383 10.6953 226.211 10.7734C226.039 10.7578 225.859 10.75 225.672 10.75C225.5 10.7344 225.328 10.7266 225.156 10.7266C224.688 10.7266 224.219 10.7422 223.75 10.7734C223.281 10.8047 222.812 10.8047 222.344 10.7734C222.125 10.8984 221.883 11 221.617 11.0781C221.367 11.1406 221.125 11.1719 220.891 11.1719C220.703 11.1719 220.539 11.1484 220.398 11.1016C220.023 11.2891 219.609 11.4453 219.156 11.5703C218.719 11.6953 218.273 11.8203 217.82 11.9453C217.367 12.0547 216.93 12.1875 216.508 12.3438C216.102 12.4844 215.742 12.6875 215.43 12.9531C215.398 13.1719 215.375 13.3906 215.359 13.6094C215.344 13.8125 215.336 14.0156 215.336 14.2188C215.336 14.4375 215.344 14.6406 215.359 14.8281C215.391 15.0156 215.445 15.2031 215.523 15.3906C215.602 15.4219 215.688 15.4453 215.781 15.4609C215.891 15.4766 215.984 15.4844 216.062 15.4844C216.141 15.4844 216.219 15.4766 216.297 15.4609C216.375 15.4297 216.43 15.375 216.461 15.2969C216.695 15.2656 216.93 15.2578 217.164 15.2734C217.398 15.2734 217.633 15.2734 217.867 15.2734C218.102 15.2734 218.328 15.2656 218.547 15.25C218.781 15.2344 219.008 15.1953 219.227 15.1328C219.477 15.0703 219.719 15.0312 219.953 15.0156C220.203 15 220.445 14.9844 220.68 14.9688C220.914 14.9531 221.156 14.9297 221.406 14.8984C221.656 14.8516 221.914 14.7656 222.18 14.6406C222.383 14.7188 222.586 14.7578 222.789 14.7578C223.008 14.7578 223.219 14.7734 223.422 14.8047C223.531 14.8828 223.617 14.9688 223.68 15.0625C223.758 15.1562 223.797 15.2656 223.797 15.3906C223.797 15.6094 223.719 15.8281 223.562 16.0469C223.406 16.2656 223.281 16.4688 223.188 16.6562H222.93C222.555 16.6562 222.188 16.7109 221.828 16.8203C221.484 16.9141 221.133 17.0312 220.773 17.1719C220.43 17.2969 220.078 17.4141 219.719 17.5234C219.375 17.6172 219.016 17.6641 218.641 17.6641C218.578 17.6641 218.539 17.7031 218.523 17.7812C218.523 17.8438 218.508 17.8906 218.477 17.9219C218.398 17.9062 218.281 17.8984 218.125 17.8984C217.766 17.8984 217.422 17.9375 217.094 18.0156C216.766 18.0938 216.43 18.1328 216.086 18.1328C215.992 18.1328 215.898 18.1328 215.805 18.1328C215.711 18.1172 215.617 18.1016 215.523 18.0859C215.445 18.2109 215.344 18.2969 215.219 18.3438C215.094 18.375 214.977 18.4375 214.867 18.5312C214.82 18.6719 214.789 18.8438 214.773 19.0469C214.773 19.25 214.766 19.4609 214.75 19.6797C214.75 19.8828 214.734 20.0781 214.703 20.2656C214.672 20.4531 214.609 20.6016 214.516 20.7109C214.531 20.7891 214.594 20.8203 214.703 20.8047C214.812 20.7734 214.867 20.8203 214.867 20.9453C214.867 21.0859 214.852 21.2344 214.82 21.3906C214.789 21.5469 214.773 21.7031 214.773 21.8594C214.773 22.1562 214.805 22.4844 214.867 22.8438C214.945 23.1875 215.055 23.5078 215.195 23.8047C215.352 24.1016 215.555 24.3516 215.805 24.5547C216.055 24.7422 216.367 24.8359 216.742 24.8359C216.992 24.8359 217.227 24.7891 217.445 24.6953C217.664 24.6016 217.844 24.4453 217.984 24.2266L218.102 24.2031C218.164 24.2031 218.219 24.2109 218.266 24.2266C218.328 24.2422 218.391 24.25 218.453 24.25C218.547 24.25 218.664 24.1953 218.805 24.0859C218.961 23.9609 219.125 23.8203 219.297 23.6641C219.484 23.5078 219.672 23.3594 219.859 23.2188C220.047 23.0625 220.227 22.9531 220.398 22.8906C220.508 22.6719 220.609 22.4531 220.703 22.2344C220.812 22.0156 220.969 21.8438 221.172 21.7188V21.0391C221.328 20.8672 221.492 20.7109 221.664 20.5703C221.852 20.4297 221.992 20.25 222.086 20.0312C222.164 20.0625 222.234 20.0859 222.297 20.1016C222.375 20.1172 222.453 20.125 222.531 20.125C222.609 20.125 222.688 20.1172 222.766 20.1016C222.859 20.0859 222.945 20.0625 223.023 20.0312C223.148 20.2031 223.242 20.3984 223.305 20.6172C223.383 20.8203 223.477 21.0156 223.586 21.2031C223.445 21.4844 223.281 21.8203 223.094 22.2109C222.906 22.6016 222.703 22.9922 222.484 23.3828C222.266 23.7734 222.031 24.1484 221.781 24.5078C221.547 24.8516 221.312 25.1172 221.078 25.3047C221.031 25.3516 220.93 25.4062 220.773 25.4688C220.602 25.5938 220.445 25.7109 220.305 25.8203C220.164 25.9453 220.031 26.0859 219.906 26.2422C219.453 26.3828 219.016 26.5703 218.594 26.8047C218.188 27.0391 217.781 27.2656 217.375 27.4844C217.188 27.4375 216.984 27.4141 216.766 27.4141C216.578 27.4141 216.391 27.4219 216.203 27.4375C216.016 27.4688 215.812 27.4844 215.594 27.4844C215.531 27.4062 215.438 27.3516 215.312 27.3203C215.203 27.3047 215.164 27.2266 215.195 27.0859C214.664 27.0547 214.234 26.9062 213.906 26.6406C213.578 26.3906 213.297 26.0781 213.062 25.7031C212.844 25.3281 212.664 24.9219 212.523 24.4844C212.383 24.0469 212.234 23.625 212.078 23.2188V23.1484C212.078 23.0703 212.109 23.0234 212.172 23.0078C212.234 22.9922 212.266 22.9453 212.266 22.8672C212.266 22.8359 212.258 22.8125 212.242 22.7969C212.195 22.625 212.156 22.4766 212.125 22.3516C212.094 22.2266 212.078 22.0781 212.078 21.9062C212.078 21.6562 212.094 21.4141 212.125 21.1797C212.156 20.9297 212.172 20.6797 212.172 20.4297C212.172 20.1797 212.141 19.9609 212.078 19.7734C212.141 19.6953 212.195 19.5938 212.242 19.4688C212.273 19.3281 212.297 19.1875 212.312 19.0469C212.328 18.9062 212.336 18.7656 212.336 18.625C212.352 18.4844 212.375 18.3594 212.406 18.25C212.344 18.0781 212.289 17.9297 212.242 17.8047C212.195 17.6641 212.172 17.5 212.172 17.3125V17.1484C212.328 16.8828 212.461 16.6094 212.57 16.3281C212.68 16.0469 212.797 15.7578 212.922 15.4609V15.3906C212.922 14.9375 212.906 14.4844 212.875 14.0312C212.844 13.5781 212.828 13.125 212.828 12.6719V12.2266C212.828 12.0703 212.836 11.9219 212.852 11.7812C212.977 11.7188 213.07 11.6328 213.133 11.5234C213.195 11.4141 213.289 11.3281 213.414 11.2656H214.188L214.328 11.0312C214.375 10.9531 214.406 10.8672 214.422 10.7734C214.594 10.7266 214.758 10.6641 214.914 10.5859C215.086 10.4922 215.242 10.3984 215.383 10.3047C215.602 10.1797 215.797 10.0703 215.969 9.97656C216.156 9.86719 216.336 9.78125 216.508 9.71875C216.695 9.64062 216.891 9.57812 217.094 9.53125C217.297 9.48438 217.531 9.44531 217.797 9.41406C217.922 9.41406 218 9.39062 218.031 9.34375C218.078 9.29688 218.141 9.24219 218.219 9.17969C218.406 9.21094 218.594 9.24219 218.781 9.27344C218.969 9.28906 219.156 9.29688 219.344 9.29688C219.719 9.29688 220.07 9.22656 220.398 9.08594C220.867 9.08594 221.328 9.07812 221.781 9.0625C222.25 9.04688 222.719 9.03906 223.188 9.03906C223.594 9.03906 224 9.05469 224.406 9.08594C224.812 9.11719 225.211 9.17188 225.602 9.25C225.742 9.20312 225.898 9.17969 226.07 9.17969C226.258 9.17969 226.445 9.20312 226.633 9.25C226.836 9.28125 227.031 9.28125 227.219 9.25C227.234 9.42188 227.273 9.57031 227.336 9.69531C227.414 9.80469 227.453 9.9375 227.453 10.0938ZM238.727 22.0469C238.727 22.3125 238.656 22.5469 238.516 22.75C238.391 22.9375 238.344 23.1719 238.375 23.4531C238.156 23.5781 237.977 23.7422 237.836 23.9453C237.695 24.1484 237.562 24.3594 237.438 24.5781C236.406 25.25 235.297 25.7891 234.109 26.1953C232.938 26.6172 231.727 26.8281 230.477 26.8281C230.398 26.8281 230.328 26.7891 230.266 26.7109C230.203 26.6484 230.141 26.5781 230.078 26.5C230.016 26.4219 229.945 26.3438 229.867 26.2656C229.805 26.2031 229.727 26.1719 229.633 26.1719C229.523 26.1719 229.438 26.1953 229.375 26.2422C229.375 26.2109 229.375 26.1797 229.375 26.1484C229.391 26.1328 229.398 26.1094 229.398 26.0781C229.398 25.8906 229.375 25.6953 229.328 25.4922C229.281 25.3047 229.258 25.1172 229.258 24.9297C229.258 24.7109 229.297 24.5312 229.375 24.3906H229.656C229.812 24.3906 229.961 24.3828 230.102 24.3672C230.258 24.3359 230.422 24.3203 230.594 24.3203C230.766 24.3203 230.922 24.3672 231.062 24.4609C231.922 24.4297 232.734 24.2734 233.5 23.9922C234.281 23.6953 235.07 23.4062 235.867 23.125C235.992 22.9531 236.062 22.7656 236.078 22.5625C236.109 22.3438 236.172 22.1406 236.266 21.9531C235.859 21.6094 235.445 21.3438 235.023 21.1562C234.617 20.9531 234.141 20.8828 233.594 20.9453C233.266 20.7422 232.914 20.625 232.539 20.5938C232.18 20.5625 231.812 20.5156 231.438 20.4531C231.344 20.4375 231.242 20.4219 231.133 20.4062C231.039 20.375 230.938 20.3594 230.828 20.3594C230.75 20.3594 230.672 20.3828 230.594 20.4297C230.531 20.4609 230.516 20.5156 230.547 20.5938C230.469 20.4688 230.359 20.3984 230.219 20.3828C230.094 20.3516 229.984 20.2891 229.891 20.1953C229.391 20.1641 228.953 20.0781 228.578 19.9375C228.203 19.7812 227.789 19.6094 227.336 19.4219C227.211 19.375 227.086 19.3438 226.961 19.3281C226.852 19.2969 226.742 19.25 226.633 19.1875C226.352 19.0469 226.125 18.8594 225.953 18.625C225.781 18.3906 225.648 18.1328 225.555 17.8516C225.445 17.5547 225.367 17.25 225.32 16.9375C225.273 16.625 225.227 16.3359 225.18 16.0703C225.32 15.8203 225.453 15.5625 225.578 15.2969C225.688 15.0312 225.781 14.75 225.859 14.4531C225.953 14.4062 226.047 14.3672 226.141 14.3359C226.234 14.3047 226.336 14.2656 226.445 14.2188C226.43 14.1875 226.422 14.1484 226.422 14.1016C226.422 14.0234 226.445 13.9453 226.492 13.8672C226.555 13.7891 226.57 13.7109 226.539 13.6328C226.883 13.3203 227.211 13 227.523 12.6719C227.852 12.3281 228.133 11.9531 228.367 11.5469C228.602 11.4688 228.789 11.3516 228.93 11.1953C229.07 11.0391 229.211 10.8828 229.352 10.7266C229.492 10.5547 229.648 10.4062 229.82 10.2812C229.992 10.1406 230.211 10.0547 230.477 10.0234C230.539 9.91406 230.625 9.82812 230.734 9.76562C230.844 9.6875 230.953 9.61719 231.062 9.55469C231.172 9.49219 231.273 9.42188 231.367 9.34375C231.461 9.26562 231.531 9.15625 231.578 9.01562C231.828 9.01562 232.055 8.96875 232.258 8.875C232.477 8.78125 232.688 8.67969 232.891 8.57031C233.094 8.46094 233.297 8.35938 233.5 8.26562C233.719 8.17188 233.953 8.125 234.203 8.125C234.266 8.125 234.328 8.13281 234.391 8.14844C234.453 8.14844 234.523 8.15625 234.602 8.17188C234.711 8.28125 234.781 8.41406 234.812 8.57031C234.859 8.71094 234.891 8.86719 234.906 9.03906C234.922 9.21094 234.93 9.38281 234.93 9.55469C234.945 9.72656 234.977 9.88281 235.023 10.0234C234.883 10.2891 234.727 10.5547 234.555 10.8203C234.398 11.0859 234.188 11.2891 233.922 11.4297H233.875C233.766 11.4453 233.664 11.4219 233.57 11.3594C233.477 11.2969 233.367 11.2656 233.242 11.2656C233.164 11.2656 233.102 11.2891 233.055 11.3359L232.938 11.4531C232.906 11.4844 232.859 11.5156 232.797 11.5469C232.75 11.5781 232.68 11.5781 232.586 11.5469C232.367 11.625 232.281 11.7578 232.328 11.9453C232.031 11.9766 231.781 12.0703 231.578 12.2266C231.375 12.3672 231.188 12.5312 231.016 12.7188C230.844 12.8906 230.672 13.0547 230.5 13.2109C230.328 13.3516 230.125 13.4297 229.891 13.4453C229.625 13.9141 229.297 14.3281 228.906 14.6875C228.531 15.0469 228.219 15.4531 227.969 15.9062C228.016 16.0312 228.047 16.1641 228.062 16.3047C228.078 16.4453 228.102 16.5938 228.133 16.75C228.273 16.9375 228.438 17.1016 228.625 17.2422C228.828 17.3828 229.023 17.5234 229.211 17.6641H229.281C229.594 17.6641 229.883 17.7266 230.148 17.8516C230.414 17.9609 230.695 18.0156 230.992 18.0156C231.148 18.0156 231.281 17.9844 231.391 17.9219C231.797 18.0156 232.195 18.0938 232.586 18.1562C232.992 18.2188 233.398 18.2656 233.805 18.2969C234.008 18.3281 234.211 18.3438 234.414 18.3438C234.633 18.3438 234.836 18.3672 235.023 18.4141C235.195 18.4609 235.367 18.5234 235.539 18.6016C235.711 18.6641 235.883 18.7344 236.055 18.8125C236.414 18.9688 236.75 19.1406 237.062 19.3281C237.391 19.5156 237.68 19.7422 237.93 20.0078C238.18 20.2578 238.375 20.5547 238.516 20.8984C238.656 21.2266 238.727 21.6094 238.727 22.0469Z" fill="#F0F0F0"/>
</svg>
